<svg width="115" height="58" viewBox="0 0 115 58" fill="none" xmlns="http://www.w3.org/2000/svg">
<path d="M3.54408e-05 20.1746C0.0481585 21.1349 0.085345 22.093 0.150967 23.051C0.168546 23.3419 0.231268 23.6282 0.336892 23.8998C0.374856 24.0069 0.436134 24.1043 0.516301 24.1848C0.596469 24.2654 0.693534 24.3272 0.800475 24.3657C0.907416 24.4042 1.02157 24.4185 1.1347 24.4075C1.24783 24.3965 1.35712 24.3606 1.45467 24.3022C1.68757 24.1715 1.90418 24.0136 2.09996 23.832C3.14335 22.9132 4.16706 21.9792 5.21702 21.0692C5.9148 20.4655 6.62789 19.8749 7.36505 19.3193C7.59701 19.163 7.78593 18.9509 7.91437 18.7024C8.04281 18.4539 8.10665 18.1771 8.10003 17.8975C8.10003 14.3561 8.10003 10.8125 8.10003 7.26887C8.1048 7.04765 8.07903 6.82682 8.02346 6.61264C7.98408 6.47265 7.87691 6.27141 7.76753 6.24735C7.43067 6.17079 7.28412 5.90392 7.07632 5.68956C5.64575 4.2218 4.14518 2.8328 2.43025 1.69972C2.07747 1.4631 1.69107 1.28096 1.28404 1.15943C1.16514 1.11379 1.037 1.09742 0.910447 1.1117C0.783889 1.12598 0.662627 1.1705 0.556888 1.24149C0.451149 1.31248 0.364045 1.40787 0.302914 1.5196C0.241783 1.63133 0.208421 1.75613 0.205653 1.88346C0.124718 2.72999 0.107226 3.58308 0.102851 4.43398C0.0736852 8.99838 0.053263 13.5642 0.0415968 18.1315C0.0415968 18.324 0.0153473 18.5165 3.54408e-05 18.7112V20.1746Z" fill="white" fill-opacity="0.38"/>
<path d="M22.7184 30.1209C21.9944 27.3647 21.2813 24.6524 20.5551 21.8897L21.1654 22.0975C21.6969 22.2703 22.2219 22.4737 22.7644 22.6071C23.5147 22.7931 23.9718 22.5415 24.2037 21.8065C24.663 20.357 25.1005 18.8987 25.5161 17.4317C25.9164 16.0405 26.2774 14.6384 26.6536 13.2384C26.6966 13.0863 26.7245 12.9302 26.7367 12.7725C26.7608 12.416 26.5639 12.241 26.2074 12.2388C26.0155 12.2409 25.8247 12.2106 25.643 12.1491C21.1135 10.535 16.483 9.21973 11.7814 8.21176C11.4248 8.13172 11.063 8.07763 10.6986 8.0499C10.0861 8.01271 9.62241 8.39113 9.63334 8.99705C9.6924 11.7466 9.63334 14.5049 10.143 17.2283C10.178 17.4186 10.2349 17.6045 10.2874 17.7926C10.3525 18.0731 10.4944 18.3299 10.6973 18.5343C10.9001 18.7386 11.1558 18.8825 11.4358 18.9498C13.1288 19.4441 14.8182 19.9545 16.504 20.481C17.2937 20.7238 18.0724 21.0081 18.8598 21.2597C18.9039 21.2658 18.9464 21.2807 18.9846 21.3035C19.0228 21.3263 19.0561 21.3566 19.0824 21.3925C19.1087 21.4284 19.1275 21.4692 19.1378 21.5125C19.148 21.5558 19.1495 21.6008 19.142 21.6447C19.0261 23.9196 18.9233 26.1967 18.8073 28.4694C18.7155 30.1362 18.5886 31.8008 18.4661 33.4632C18.4321 33.7238 18.3583 33.9776 18.2474 34.2157C18.0921 34.5985 17.8733 34.9572 17.7465 35.3488C17.6377 35.6794 17.6114 36.0315 17.6697 36.3746C17.728 36.7177 17.8693 37.0414 18.0811 37.3175C18.1915 37.4711 18.2512 37.6554 18.2517 37.8446C18.1059 40.3966 17.944 42.9486 17.7661 45.5006C17.5999 47.9308 17.4096 50.3588 17.2258 52.789C17.1427 53.8827 17.0509 54.9764 16.9655 56.0701C16.9459 56.3261 16.9262 56.582 16.9284 56.8357C16.9305 57.0895 16.983 57.3301 17.263 57.3738C17.3246 57.3818 17.3872 57.3773 17.447 57.3607C17.5068 57.3441 17.5628 57.3157 17.6115 57.2772C17.6602 57.2387 17.7007 57.1908 17.7306 57.1364C17.7606 57.082 17.7793 57.0222 17.7858 56.9604C17.9023 56.4759 17.9907 55.9851 18.0505 55.4905C18.6455 49.8688 19.1048 44.2384 19.3761 38.5927C19.3761 38.5074 19.3958 38.4243 19.4067 38.3237C19.8923 38.4155 20.3692 38.4921 20.8351 38.608C20.9182 38.6299 20.9991 38.8049 21.0144 38.9186C21.1523 39.9183 21.2726 40.9201 21.3994 41.922C21.6772 44.0941 21.966 46.264 22.2306 48.4383C22.4953 50.6126 22.7294 52.8131 22.9941 55.0005C23.0115 55.1471 23.1625 55.3724 23.2719 55.3855C23.3557 55.3736 23.4362 55.3441 23.5078 55.2988C23.5794 55.2536 23.6407 55.1936 23.6875 55.123C23.7611 54.9834 23.7908 54.8248 23.7728 54.668C23.7181 53.5371 23.694 52.4019 23.5759 51.2797C23.2894 48.5804 22.9634 45.8856 22.6397 43.1863C22.4713 41.7863 22.2744 40.3886 22.0928 38.9886C22.0797 38.8946 22.0797 38.7983 22.071 38.6496C22.5544 38.6146 23.0203 38.5665 23.4884 38.5577C23.5497 38.5577 23.6481 38.7393 23.6765 38.8508C24.114 40.6008 24.499 42.3507 24.9518 44.1006C26.028 48.2348 27.1392 52.3625 28.222 56.4923C28.2557 56.7084 28.3144 56.9198 28.397 57.1223C28.4691 57.2535 28.6682 57.4132 28.7819 57.3957C28.8602 57.3668 28.9297 57.3182 28.9837 57.2546C29.0378 57.191 29.0745 57.1145 29.0904 57.0326C29.0749 56.5598 29.0141 56.0895 28.9088 55.6283C27.8457 51.2389 26.7746 46.8517 25.6955 42.4666C25.3936 41.2358 25.094 40.0058 24.7965 38.7765C24.768 38.6605 24.7527 38.5424 24.7309 38.4199C25.9602 38.2012 27.172 38.0021 28.3729 37.7462C32.2884 36.9106 36.2009 36.0604 40.1105 35.1957C42.322 34.7057 44.5138 34.1304 46.7297 33.6776C48.8405 33.2401 50.8617 33.4961 52.7275 34.6926C55.7287 36.6175 58.9114 38.1837 62.0503 39.8199C65.2942 41.5064 68.7328 42.3813 72.3005 42.9325C74.7285 43.3088 77.1522 43.7375 79.5671 44.1881C81.2754 44.5075 82.8329 45.2403 84.3028 46.1568C86.0943 47.2658 87.8442 48.4405 89.6445 49.5342C90.5724 50.1134 91.5453 50.6174 92.5537 51.0413C94.004 51.6319 94.7915 51.3038 95.6292 49.9716C96.1717 49.112 96.2242 48.1495 96.1673 47.1849C96.1061 46.1655 95.9683 45.1506 95.8699 44.1225C95.8283 43.685 95.7867 43.2257 95.778 42.7751C95.7704 42.451 95.8287 42.1288 95.9494 41.828C96.0701 41.5272 96.2507 41.2541 96.4801 41.0251C97.0802 40.3747 97.861 39.9184 98.7222 39.7149C100.253 39.3605 101.785 39.0586 103.316 38.748C104.335 38.5468 105.269 38.1662 105.978 37.4006C107.041 36.2522 108.362 35.5807 109.817 35.0972C110.481 34.8967 111.129 34.6459 111.755 34.347C112.342 34.0548 112.888 33.6871 113.38 33.2532C114.22 32.4898 114.347 31.5033 113.802 30.4971C113.309 29.5637 112.534 28.8092 111.589 28.3403C110.248 27.6841 108.802 27.426 107.349 27.1657C104.186 26.6013 101.019 26.0567 97.8757 25.4158C95.1327 24.8514 92.6697 23.5893 90.3423 22.0646C88.4983 20.855 86.6893 19.5951 84.8278 18.416C81.4176 16.2571 77.7297 14.6603 73.9717 13.2275C69.6494 11.5811 65.3219 9.94857 60.9894 8.32988C59.9781 7.96787 59.0487 7.40876 58.2551 6.68495C56.6299 5.16907 54.7203 4.06005 52.7866 2.99916C51.122 2.08482 49.4705 1.12674 47.6221 0.62582C45.4019 0.0264689 43.1467 -0.29727 40.8849 0.374265C40.0853 0.627841 39.313 0.960517 38.5794 1.36735C37.8676 1.7731 37.0551 1.96807 36.2366 1.92952C34.7405 1.83764 33.2465 1.73265 31.7524 1.64296C30.1469 1.54891 28.5413 1.45485 26.9401 1.37829C26.4545 1.35423 25.9646 1.40235 25.7108 1.90983C25.4571 2.41731 25.6474 2.90073 25.9908 3.25509C26.5669 3.88083 27.1995 4.45199 27.8807 4.96127C29.4622 6.07904 31.0962 7.12024 32.7083 8.19208C33.054 8.42175 33.393 8.658 33.7364 8.88767C34.8402 9.61754 35.7249 10.6337 36.2957 11.8276C36.7463 12.7594 37.256 13.6606 37.7503 14.5706C38.0077 15.0147 38.1457 15.5178 38.1511 16.031C38.1565 16.5442 38.029 17.0501 37.781 17.4995C37.1947 18.6873 36.4685 19.7722 35.4448 20.5969C32.2993 23.1365 29.2807 25.8467 25.8902 28.0625L22.9262 30.0093C22.8672 30.0378 22.8038 30.0706 22.7184 30.1209ZM53.071 31.2868L53.4056 31.3371C54.3156 31.4924 55.2256 31.6543 56.1377 31.8052C59.1257 32.2974 62.1268 32.6911 65.0645 33.472C67.6894 34.1676 70.2903 34.8282 72.7314 36.0335C75.2666 37.2868 77.5765 38.8399 79.473 40.9486C79.6593 41.1671 79.8072 41.4156 79.9105 41.6835C79.9499 41.7776 79.8383 41.9832 79.7355 42.0707C79.6764 42.121 79.4665 42.0816 79.3855 42.0116C78.8795 41.5742 78.3844 41.125 77.9003 40.6642C76.0825 38.9471 73.9826 37.6674 71.7318 36.6087C68.4507 35.0622 64.9049 34.3426 61.4094 33.4939C59.5348 33.0367 57.6055 32.7983 55.7046 32.4461C54.7378 32.2667 53.7775 32.0546 52.8172 31.8489C52.7494 31.8336 52.6466 31.7614 52.6422 31.7089C52.6359 31.6577 52.64 31.6057 52.6543 31.5561C52.6686 31.5065 52.6927 31.4602 52.7254 31.4202C52.8317 31.3555 52.9487 31.3104 53.071 31.2868ZM108.439 33.1329C108.235 33.1023 108.102 33.0914 107.971 33.0629C106.155 32.6605 104.329 32.3017 102.526 31.8402C100.019 31.1971 97.5301 30.4818 95.0365 29.784C94.9008 29.7468 94.798 29.5937 94.6821 29.4931C94.8175 29.4166 94.9658 29.3655 95.1196 29.3422C95.4468 29.3718 95.7709 29.4289 96.0886 29.5128C99.0394 30.2368 101.995 30.9565 104.939 31.7002C106.116 31.9977 107.282 32.3564 108.439 32.6933C108.557 32.7283 108.638 32.8901 108.738 32.9929L108.439 33.1329ZM100.494 36.3309C100.291 36.2588 100.118 36.2019 99.9472 36.1363L91.576 32.8967C91.4478 32.8582 91.3261 32.8007 91.215 32.7261C91.1388 32.6435 91.0767 32.5489 91.0313 32.4461C91.1232 32.4023 91.215 32.3214 91.3069 32.3214C91.5127 32.3138 91.7185 32.3374 91.9172 32.3914C94.728 33.2664 97.5126 34.2223 100.172 35.5041C100.35 35.5833 100.517 35.6864 100.667 35.8103C100.705 35.8526 100.733 35.9033 100.749 35.9584C100.764 36.0136 100.766 36.0715 100.754 36.1275C100.724 36.215 100.582 36.2675 100.494 36.3309ZM39.3493 7.71303C39.38 7.58616 39.4215 7.34555 39.4959 7.11587C39.7146 6.40277 40.2505 6.12935 40.9724 6.33715C41.1146 6.37653 41.2568 6.41152 41.3924 6.46183C41.6713 6.57255 41.9109 6.76376 42.0807 7.01112C42.2506 7.25848 42.3429 7.5508 42.3461 7.85084C42.3461 8.45675 42.2258 9.02767 41.5914 9.30984C40.6137 9.74733 39.3406 8.89861 39.3493 7.71303ZM93.3784 47.4845C93.3237 47.5589 93.2406 47.7274 93.1947 47.7186C93.0533 47.696 92.9246 47.6239 92.8315 47.5152C92.1248 46.4075 91.5382 45.2277 91.0816 43.9956C90.8344 43.3394 90.5107 42.7182 90.257 42.0685C90.2373 41.9846 90.237 41.8973 90.2559 41.8132C90.2749 41.7291 90.3126 41.6503 90.3663 41.5829C90.421 41.5195 90.6901 41.5829 90.8038 41.6551C90.9327 41.767 91.0306 41.9101 91.0882 42.0707C91.8173 43.7288 92.5406 45.3897 93.2581 47.0536C93.3074 47.1947 93.3483 47.3386 93.3806 47.4845H93.3784ZM87.9099 41.9373C87.9777 41.8367 88.0367 41.6617 88.1395 41.6289C88.2424 41.596 88.3802 41.7207 88.4895 41.7951C88.5442 41.8323 88.5661 41.9176 88.5989 41.9832C89.2704 43.3591 89.9442 44.7328 90.6069 46.113C90.7198 46.3276 90.798 46.5587 90.8388 46.7977C90.8212 46.9646 90.7714 47.1266 90.6923 47.2746C90.5369 47.1871 90.3073 47.1368 90.2416 47.0055C89.5264 45.5728 88.8308 44.1269 88.1417 42.6788C88.0519 42.4369 87.9788 42.1892 87.923 41.9373H87.9099ZM42.2717 15.8721C42.1887 15.9904 42.0909 16.0978 41.9808 16.1914C41.9524 16.2111 41.762 16.0777 41.7139 15.9727C41.0096 14.6603 40.3205 13.3259 39.6162 12.0091C39.4959 11.7904 39.3056 11.6044 39.1634 11.3944C39.1146 11.3031 39.0772 11.2061 39.0518 11.1057C39.17 11.0773 39.3187 10.9898 39.3996 11.0335C39.5682 11.1279 39.7168 11.2542 39.8371 11.4054C40.7876 12.5986 41.5571 13.9252 42.1208 15.3427C42.1815 15.516 42.2319 15.6928 42.2717 15.8721ZM21.0932 31.2321C20.9269 29.574 20.7629 27.9357 20.601 26.2951C20.6791 26.3746 20.731 26.4762 20.7498 26.586C21.0414 27.8153 21.3331 29.0447 21.6247 30.274C21.7822 30.8865 21.756 30.9346 21.0932 31.2321ZM19.8376 29.2481L19.9032 29.235C19.9164 29.34 19.9317 29.4537 19.9426 29.5456C20.0082 30.2215 20.0454 30.9018 20.1504 31.5711C20.2204 32.0086 20.0564 32.2514 19.6429 32.4723C19.7108 31.3655 19.7742 30.309 19.8376 29.2481Z" fill="white" fill-opacity="0.38"/>
<path d="M41.6178 7.90125C41.6025 7.33908 41.294 7.05909 40.7034 7.07222C40.5039 7.09531 40.3198 7.19101 40.1863 7.34107C40.0528 7.49113 39.9792 7.68507 39.9794 7.88594C39.9991 8.41748 40.4431 8.92496 40.8741 8.90746C41.305 8.88996 41.6309 8.43497 41.6178 7.90125Z" fill="white" fill-opacity="0.38"/>
</svg>
