<svg width="71" height="54" viewBox="0 0 71 54" fill="none" xmlns="http://www.w3.org/2000/svg">
<path d="M43.2136 18.2665C43.6098 18.3064 43.962 18.3669 44.3142 18.3711C46.1398 18.3931 47.9654 18.3986 49.791 18.4096C51.9826 18.4233 54.1397 18.7535 56.2928 19.1126C57.0439 19.2378 57.791 19.3877 58.5806 19.5391C58.9149 18.3339 59.2479 17.1356 59.5973 15.8796C59.329 15.9346 59.1117 15.9773 58.8957 16.0254C58.1707 16.1864 57.4456 16.3556 56.7193 16.511C56.2983 16.6005 56.0245 16.412 55.9956 15.9883C55.858 14.0787 55.7411 12.1678 55.6214 10.2569C55.605 10.1294 55.6225 9.99986 55.6723 9.88134C55.7331 9.76258 55.8369 9.67153 55.9626 9.62683C57.1058 9.38333 58.2546 9.16458 59.402 8.92658C61.2565 8.53862 63.1068 8.13965 64.96 7.74894C65.5364 7.62788 65.795 7.84387 65.7593 8.43681C65.6428 10.3078 65.5213 12.1788 65.3947 14.0498C65.3672 14.4474 65.2269 14.6111 64.8251 14.7019C63.6558 14.9675 62.4864 15.2357 61.3129 15.4792C61.0226 15.5398 60.9332 15.654 60.94 15.9484C60.9703 17.3241 60.9799 18.6999 60.9882 20.0852C60.9804 20.1572 60.9983 20.2295 61.0385 20.2896C61.0787 20.3497 61.1389 20.3938 61.2083 20.414C61.5852 20.5637 61.9528 20.7359 62.3089 20.9299C62.6019 21.0948 62.8716 21.2979 63.111 21.5339C63.5085 21.9466 63.4755 22.4102 63.0037 22.728C62.4912 23.0661 61.9567 23.3694 61.4037 23.636C61.1354 23.7736 61.0336 23.9029 61.0391 24.2111C61.1051 27.733 61.1592 31.2544 61.2014 34.7754C61.2152 35.887 61.1808 36.9986 61.167 38.1088C61.167 38.4349 61.0295 38.6247 60.8011 38.633C60.5012 38.644 60.3815 38.439 60.3306 38.19C60.2923 37.9956 60.2725 37.798 60.2714 37.5998C60.248 34.7025 60.2384 31.8052 60.2081 28.9079C60.193 27.4399 60.1462 25.972 60.1118 24.5055C60.1118 24.4092 60.0981 24.3129 60.0912 24.218C59.7665 24.2083 59.6523 24.3459 59.6056 24.6527C59.0067 28.5341 58.3986 32.4133 57.7813 36.2901C57.7483 36.5033 57.6974 36.7262 57.4236 36.7207C57.1499 36.7152 57.0563 36.4813 57.0728 36.2585C57.1182 35.5967 57.1677 34.9336 57.264 34.2774C57.7194 31.1462 58.1899 28.0191 58.6549 24.8907C58.6673 24.8026 58.6756 24.7146 58.6852 24.6279C58.1762 24.5894 58.0372 24.6885 57.9065 25.1535C57.015 28.3525 56.1222 31.5502 55.228 34.7465C55.0464 35.3959 54.8304 36.0342 54.6391 36.6808C54.5965 36.8184 54.6199 36.9862 54.5593 37.1155C54.4988 37.2449 54.3736 37.4196 54.2704 37.4237C54.1937 37.4165 54.1196 37.3914 54.0544 37.3503C53.9891 37.3091 53.9345 37.2532 53.8949 37.1871C53.8297 37.0218 53.8195 36.8399 53.866 36.6684C54.2526 35.1551 54.646 33.6418 55.056 32.1285C55.6861 29.8048 56.3327 27.484 56.971 25.1617C56.9861 25.1053 56.9917 25.0462 57.0109 24.9375C56.5982 25.0021 56.2006 25.0585 55.8071 25.1246C53.1932 25.5607 50.5793 25.95 47.9778 26.4522C46.1123 26.8167 44.2757 27.3326 42.4322 27.799C41.2999 28.0852 40.3163 28.6877 39.3491 29.3123C39.2597 29.3731 39.1888 29.4574 39.1441 29.5558C38.1385 31.863 36.8054 33.9926 35.5383 36.1594C34.6235 37.7181 33.7031 39.27 32.6066 40.709C31.2074 42.5521 29.6291 44.2522 27.8947 45.7841C25.3991 47.9853 22.8664 50.1314 20.3377 52.2886C19.9981 52.5608 19.6289 52.7938 19.2371 52.9834C19.0501 53.0794 18.8418 53.1263 18.6316 53.1196C18.4215 53.1128 18.2166 53.0527 18.0361 52.9448C17.6674 52.7509 17.2946 52.5651 16.9355 52.3588C16.7486 52.2449 16.5404 52.1706 16.3237 52.1403C16.1069 52.11 15.8863 52.1244 15.6753 52.1827C15.3506 52.2811 15.0077 52.3047 14.6725 52.2518C14.3373 52.199 14.0184 52.0709 13.7397 51.8773C13.21 51.5154 12.6198 51.3449 12.0062 51.2073C10.8671 50.9528 10.3553 50.1535 10.6621 49.0171C10.8384 48.4085 11.0686 47.8169 11.35 47.2493C11.7366 46.4362 12.1658 45.6396 12.5964 44.8472C13.2477 43.662 13.6238 42.3455 13.697 40.9951C13.847 38.2437 14.5472 35.6435 15.6712 33.1369C16.7057 30.7961 17.9104 28.5342 19.2757 26.3696C19.5178 25.9899 19.6636 25.5442 19.848 25.1314C19.8934 25.0409 19.9031 24.9365 19.8751 24.8391C19.847 24.7417 19.7833 24.6585 19.6966 24.6059C19.4577 24.4311 19.1997 24.2838 18.9276 24.1671C17.5758 23.6528 16.1177 23.4812 14.6834 23.6677C11.1354 24.0804 7.71117 25.0572 4.29107 26.0436C3.61083 26.2501 2.9146 26.3996 2.20957 26.4907C1.74751 26.5308 1.2822 26.4717 0.844835 26.3173C0.0936794 26.0642 -0.177342 25.4011 0.115691 24.6665C0.229126 24.3704 0.389377 24.0945 0.590322 23.8493C0.957983 23.3816 1.36734 22.9483 1.81336 22.5547C4.92391 20.0082 8.19956 17.7093 11.9003 16.0887C13.9639 15.1848 16.0344 14.3002 18.2287 13.7719C19.9704 13.3496 21.7451 13.2794 23.5212 13.4129C24.7971 13.4995 26.0677 13.6519 27.3279 13.8696C27.8397 13.9632 28.046 13.8449 28.3322 13.4569C30.4001 10.6368 32.843 8.11196 35.5933 5.95222C37.0126 4.821 38.778 4.21279 40.5928 4.22979C42.2836 4.2408 43.7226 3.64373 45.1107 2.78801C46.303 2.0497 47.5077 1.32285 48.7248 0.607462C49.0758 0.422302 49.439 0.260976 49.8117 0.124577C49.9399 0.072267 50.0738 0.0348769 50.2106 0.0131419C50.732 -0.0762814 51.0746 0.302047 50.8985 0.801442C50.8014 1.06135 50.6675 1.30598 50.5009 1.52783C49.3659 3.10581 48.2433 4.69204 47.0684 6.24388C46.364 7.17251 46.0105 8.16992 46.1934 9.32417C46.58 11.762 45.7683 13.8999 44.5866 15.9497C44.1546 16.705 43.7006 17.4479 43.2136 18.2665ZM41.5297 9.35719C41.5374 9.21094 41.5159 9.06462 41.4664 8.92679C41.4169 8.78896 41.3404 8.6624 41.2414 8.55452C41.1423 8.44664 41.0228 8.35961 40.8897 8.29853C40.7566 8.23745 40.6126 8.20355 40.4662 8.19881C40.1508 8.19036 39.8445 8.30469 39.6117 8.5177C39.3789 8.73071 39.2379 9.02576 39.2184 9.34068C39.2111 9.64607 39.3226 9.94238 39.5295 10.1672C39.7363 10.392 40.0223 10.5277 40.3273 10.5458C40.9546 10.5651 41.5077 10.0162 41.5297 9.35719Z" fill="#377585"/>
<path d="M65.9905 12.9548C66.1464 11.2782 66.3018 9.60075 66.4568 7.92234C66.4776 7.55433 66.6409 7.20889 66.9122 6.95932C67.7019 6.21917 68.4984 5.49141 69.4133 4.90396C69.5269 4.82436 69.6476 4.75528 69.7737 4.6976C69.8562 4.65623 69.9475 4.63541 70.0397 4.63692C70.132 4.63843 70.2225 4.66222 70.3036 4.70628C70.3847 4.75033 70.4539 4.81333 70.5054 4.88991C70.5568 4.96649 70.589 5.05438 70.5992 5.14609C70.6285 5.32206 70.6332 5.50126 70.613 5.6785C70.4355 7.51375 70.2608 9.35036 70.0627 11.1815C69.8852 12.8571 69.6885 14.5314 69.4945 16.2043C69.4573 16.5249 69.4573 16.8853 69.0914 17.0408C68.7254 17.1962 68.4723 16.9307 68.2205 16.7312C67.6056 16.2456 66.9989 15.7503 66.3894 15.2592C66.2396 15.144 66.1227 14.9915 66.0502 14.817C65.9778 14.6424 65.9525 14.4519 65.9767 14.2645C66.0138 13.8298 66.0221 13.3937 66.0427 12.9576L65.9905 12.9548Z" fill="#377585"/>
<path d="M40.4799 10.1482C40.1414 10.1482 39.7603 9.76716 39.7617 9.43973C39.7735 9.25586 39.8523 9.08268 39.9831 8.9529C40.1139 8.82312 40.2876 8.74573 40.4716 8.73535C40.6537 8.74225 40.826 8.81916 40.9528 8.95003C41.0795 9.08091 41.1509 9.25566 41.1519 9.43785C41.153 9.62003 41.0837 9.7956 40.9585 9.92795C40.8333 10.0603 40.6618 10.1392 40.4799 10.1482Z" fill="#377585"/>
</svg>
