<svg width="127" height="88" viewBox="0 0 127 88" fill="none" xmlns="http://www.w3.org/2000/svg">
<path d="M84.5872 24.2598C85.291 25.1551 86.2537 25.6486 87.2839 26.0773C90.6897 27.4931 94.2439 28.2158 97.9086 28.5043C99.8745 28.6661 101.838 28.9142 103.793 29.1704C104.359 29.2459 104.602 29.1057 104.788 28.5609C105.181 27.3421 105.645 26.134 106.136 24.7856C105.815 24.8989 105.61 24.9528 105.424 25.0391C104.507 25.4598 103.607 25.9236 102.674 26.3092C101.657 26.7272 100.883 26.3335 100.605 25.2872C99.861 22.4935 99.1356 19.6971 98.4048 16.9007C98.3409 16.6566 98.2914 16.409 98.2565 16.1591C98.154 15.3932 98.51 14.9887 99.2731 14.9537C99.4749 14.9456 99.6734 14.8999 99.8583 14.8189C103.342 13.2791 106.816 11.715 110.308 10.1968C112.031 9.44444 113.789 8.76758 115.534 8.06646C115.852 7.93538 116.181 7.83427 116.518 7.76443C117.524 7.55949 118.314 8.15275 118.258 9.16399C118.082 12.3514 117.866 15.5335 117.637 18.7155C117.567 19.6971 117.012 20.3335 116.071 20.7002C114.229 21.4067 112.408 22.1672 110.572 22.8926C110.407 22.929 110.261 23.0271 110.166 23.1668C110.07 23.3066 110.031 23.4776 110.057 23.645C110.154 25.6162 110.213 27.5902 110.273 29.5641C110.258 29.7757 110.3 29.9875 110.395 30.1772C110.49 30.367 110.634 30.5278 110.812 30.6428C111.92 31.4032 111.92 32.7057 110.844 33.5255C110.695 33.6233 110.575 33.7602 110.498 33.9214C110.421 34.0826 110.39 34.2619 110.408 34.4396C110.586 41.6478 110.742 48.8586 110.915 56.0667C110.947 57.5121 111.022 58.9575 111.068 60.4029C111.093 61.1418 110.653 61.6784 110.03 61.6973C109.407 61.7162 108.922 61.158 108.914 60.4002C108.865 54.9134 108.813 49.4303 108.757 43.9507L108.668 35.4077C108.668 35.1569 108.668 34.9061 108.668 34.6581C107.67 34.6203 107.452 34.7794 107.304 35.6612C105.831 44.4702 104.36 53.2739 102.889 62.0721C102.87 62.1827 102.852 62.2959 102.825 62.4092C102.649 63.1804 102.175 63.5688 101.544 63.4555C100.913 63.3422 100.597 62.7598 100.735 62.0074C100.961 60.7427 101.207 59.4807 101.433 58.2159C102.781 50.7193 104.13 43.2208 105.478 35.7205C105.48 35.6582 105.476 35.5958 105.465 35.5345C104.823 35.5506 104.354 35.6558 104.1 36.419C101.019 45.717 97.9149 55.0078 94.7886 64.2915C94.718 64.5339 94.6278 64.7702 94.519 64.998C94.4083 65.2552 94.2045 65.461 93.9484 65.574C93.6923 65.6871 93.4028 65.699 93.1383 65.6074C92.8803 65.5041 92.669 65.3099 92.5443 65.0615C92.4196 64.8132 92.3901 64.5277 92.4614 64.2591C92.5244 64.015 92.6009 63.7746 92.6906 63.5391L101.843 36.988C101.902 36.8181 101.954 36.6428 102.026 36.419C101.891 36.4038 101.755 36.4038 101.619 36.419C95.5518 38.0639 89.4843 39.6792 83.4277 41.3835C82.047 41.7718 80.731 42.4406 79.4151 43.0015C78.4327 43.4181 77.6063 44.1332 77.0528 45.0455C76.1036 46.5907 75.1436 48.1305 74.2672 49.7161C70.7465 56.189 65.6229 61.6497 59.3871 65.5751C57.8716 66.5324 56.3561 67.487 54.881 68.5009C51.0115 71.1882 46.8623 73.4486 42.5061 75.2425C41.0548 75.8326 39.7851 76.7954 38.8252 78.0336C36.4602 80.9999 33.9416 83.8394 30.7191 85.932C29.8303 86.5412 28.889 87.07 27.9065 87.5123C26.151 88.2457 24.8916 87.2426 25.2611 85.4008C25.6656 83.381 26.2453 81.3963 26.7496 79.3981C26.8197 79.1122 26.8898 78.8291 26.995 78.4138C26.1213 78.5432 25.3582 78.6457 24.5977 78.7724C21.0921 79.3603 17.5864 80.0668 14.0808 80.5118C10.8814 80.8827 7.64697 80.8283 4.46186 80.35C3.21953 80.2089 2.05091 79.6882 1.11533 78.8587C-0.111641 77.7369 -0.365127 76.4156 0.549035 75.0349C1.27207 73.9478 2.09254 72.9287 3.00028 71.9904C5.01198 69.9113 7.07761 67.8834 9.16481 65.8825C14.2561 61.0043 19.4444 56.2258 24.4575 51.2721C30.1897 45.5642 35.4358 39.3882 40.1412 32.8082C42.1313 30.0441 43.6468 26.943 45.3942 24.0036C46.721 21.7762 47.9749 19.4975 49.4392 17.3618C52.8396 12.4081 57.1219 8.38736 62.6878 5.96577C67.7269 3.74893 73.1737 2.60995 78.6789 2.62193C82.8622 2.59403 87.02 1.96931 91.0268 0.766645C92.2322 0.418778 93.4996 0.275856 94.7428 0.070911C95.1226 -0.023637 95.5198 -0.023637 95.8996 0.070911C96.3625 0.219307 96.7714 0.500666 97.0754 0.879904C97.3909 1.35991 97.132 1.89923 96.741 2.31182C95.4466 3.67902 94.1873 5.08127 92.8443 6.39993C89.4223 9.75456 86.6663 13.546 84.9405 18.0467C84.1908 20.0018 83.8618 21.9784 84.4713 24.036C84.1126 23.8904 83.7593 23.7259 83.3926 23.6045C81.2083 22.8818 80.696 21.5497 81.8043 19.5272C81.9129 19.3259 82.0335 19.1314 82.1656 18.9447C82.6268 18.3164 83.1229 17.715 83.5436 17.0571C83.6758 16.8521 83.611 16.5177 83.638 16.2481C83.3872 16.2696 83.0717 16.2022 82.8937 16.329C81.4402 17.3753 80.3508 18.6993 79.9652 20.5007C79.5903 22.2454 80.3832 23.7933 82.0497 24.4324C82.6348 24.6589 83.2928 24.702 83.9212 24.8072C84.3472 24.8773 84.5791 24.6886 84.5872 24.2598ZM39.9847 72.4569C40.1654 72.6969 40.2841 73.0124 40.4836 73.0744C40.7405 73.0911 40.9944 73.0113 41.1955 72.8506C41.3496 72.7125 41.4728 72.5434 41.5569 72.3544C42.2337 71.2353 42.8836 70.1 43.5902 68.9998C47.6351 62.7274 52.7749 57.4986 58.6509 52.9629C62.8226 49.7458 67.6361 47.6343 72.2797 45.2343C72.482 45.1291 72.6114 44.8864 72.7759 44.695C72.5386 44.5952 72.2986 44.4037 72.0667 44.4118C71.7481 44.4451 71.4382 44.5365 71.1525 44.6815C70.5188 44.9511 69.904 45.2666 69.2649 45.5309C59.7053 49.5058 52.0064 55.913 45.5533 63.8681C43.8814 65.9283 42.4549 68.1827 40.969 70.3913C40.5645 71.0088 40.3326 71.7207 39.9847 72.4569ZM78.6142 8.93747C78.3269 8.93725 78.0425 8.99507 77.7781 9.10745C77.5137 9.21984 77.2747 9.38447 77.0755 9.59148C76.8763 9.7985 76.721 10.0436 76.6188 10.3121C76.5167 10.5807 76.4699 10.867 76.4811 11.1541C76.5 12.4863 77.5733 13.6836 78.7301 13.6647C79.7656 13.6485 80.9494 12.2732 80.9575 11.0759C80.9602 9.96759 79.8438 8.92938 78.6142 8.93747ZM108.277 29.7016L108.547 29.7367V28.0297L108.509 28.0162C108.436 28.5744 108.361 29.1299 108.285 29.6908L108.277 29.7016Z" fill="#096685"/>
<path d="M127 12.2192C126.906 14.8133 126.835 17.0165 126.73 19.2305C126.706 19.6879 126.627 20.1407 126.493 20.5788C126.156 21.6763 125.199 22.0484 124.214 21.4606C123.505 21.0372 122.842 20.5383 122.143 20.0988C121.641 19.7764 121.121 19.4811 120.587 19.2143C120.247 19.0698 119.955 18.8301 119.747 18.524C119.539 18.218 119.423 17.8584 119.414 17.4884C119.234 14.0727 119.063 10.6569 118.899 7.24117C118.883 6.82809 118.921 6.41465 119.012 6.01151C119.073 5.7221 119.207 5.45344 119.403 5.23218C120.752 3.83262 122.119 2.45733 123.478 1.07395C123.662 0.868469 123.857 0.673973 124.063 0.491478C124.95 -0.217739 125.975 0.116644 126.221 1.21957C126.341 1.75688 126.415 2.30365 126.442 2.85374C126.66 6.0978 126.838 9.34995 127 12.2192Z" fill="#096685"/>
<path d="M80.0863 11.2727C80.0935 11.4444 80.0651 11.6157 80.003 11.7759C79.9409 11.9361 79.8464 12.0818 79.7254 12.2038C79.6044 12.3258 79.4595 12.4215 79.2998 12.485C79.1402 12.5484 78.9691 12.5782 78.7973 12.5725C78.4417 12.543 78.1106 12.3791 77.8716 12.114C77.6326 11.849 77.5037 11.5028 77.511 11.1459C77.5052 10.8116 77.6312 10.4883 77.8618 10.2461C78.0924 10.0039 78.4091 9.86214 78.7434 9.85156C78.9263 9.85203 79.1072 9.8897 79.2751 9.96229C79.443 10.0349 79.5943 10.1409 79.72 10.2738C79.8456 10.4068 79.9429 10.5639 80.0058 10.7356C80.0688 10.9073 80.0962 11.09 80.0863 11.2727Z" fill="#096685"/>
</svg>
