<svg width="1948" height="2780" viewBox="0 0 1948 2780" fill="none" xmlns="http://www.w3.org/2000/svg">
<path d="M1942.21 0V530.789H5.85156C5.85156 529.8 5.85156 528.811 5.85156 527.823V81.1272C5.85156 80.1928 5.93246 79.2584 6.02663 78.3262C6.01806 77.9674 6.54667 77.6137 7.56681 77.296C8.58694 76.9784 10.0674 76.7063 11.8789 76.5036C28.3868 74.5073 45.5139 72.6671 64.2687 71.2754C87.5978 69.5451 111.922 68.2611 136.314 67.0255C182.883 64.6308 231.359 63.3714 280.177 63.288C319.855 63.2378 359.414 62.5752 398.329 61.3093C414.179 60.7895 429.457 59.8808 443.642 58.6138C479.752 55.4105 513.858 51.6883 547.143 47.7705C613.968 39.9018 680.969 32.0771 750.633 24.8856C792.73 20.539 836.039 16.5486 881.769 13.2925C941.814 9.01633 1004.63 6.98485 1070 6.9167C1080.77 6.9167 1091.45 7.18712 1102.2 7.20251C1140.25 7.25967 1177.89 8.08194 1215.67 8.70633C1269.26 9.58576 1321.95 11.3446 1375.06 12.7451C1419.17 13.9037 1462.74 15.6032 1507.31 16.3398C1539.38 16.8696 1571.31 17.6875 1603.72 17.4852C1618.52 17.3929 1633.17 17.0455 1647.89 16.8256C1690.69 16.1837 1731.92 14.4666 1772.23 12.0767C1797.54 10.5773 1821.93 8.72392 1846.78 7.04201C1876.58 5.02813 1906.59 3.08459 1934.71 0.446309C1937.14 0.26846 1939.65 0.119307 1942.21 0Z" fill="url(#paint0_linear_0_667)" fill-opacity="0.8"/>
<path d="M5.85365 30.0654V529.365L1942.21 530.789C1942.21 529.859 1942.21 526.555 1942.21 525.626L1935.15 106.38C1935.15 105.501 1935.07 104.622 1934.97 103.745C1934.98 103.407 1934.46 103.075 1933.44 102.776C1932.42 102.477 1930.95 102.221 1929.14 102.03C1912.7 100.152 1895.63 98.4214 1876.94 97.1123C1853.7 95.4847 1829.46 94.2769 1805.16 93.1146C1758.76 90.8619 1710.46 89.6772 1661.82 89.5988C1622.29 89.5515 1582.88 88.9283 1544.1 87.7374C1528.31 87.2485 1513.09 86.3937 1498.95 85.2019C1462.98 82.1886 1428.99 78.6873 1395.83 75.0019C1329.25 67.6 1262.49 60.2395 1193.08 53.4746C1151.14 49.3859 1107.99 45.6323 1062.43 42.5694C1002.6 38.5469 940.012 36.6359 874.878 36.5718C864.154 36.5718 853.511 36.8262 842.8 36.8406C804.891 36.8944 767.384 37.6679 729.743 38.2552C676.351 39.0825 623.845 40.737 570.936 42.0544C526.981 43.1443 483.576 44.743 439.166 45.4358C407.209 45.9342 375.399 46.7036 343.107 46.5133C328.362 46.4264 313.764 46.0997 299.099 45.8929C256.458 45.289 215.372 43.6738 175.211 41.4257C149.997 40.0152 125.693 38.2718 100.935 36.6897C71.2428 34.7953 41.3366 32.967 13.3205 30.4853C10.8999 30.318 8.40433 30.1777 5.85365 30.0654Z" fill="url(#paint1_linear_0_667)" fill-opacity="0.7"/>
<path d="M1941.23 110.474V544.251H10.7378V80.9583C64.0131 80.8934 115.989 81.9425 166.544 84.7758C213.268 87.3947 256.661 91.2839 294.721 96.2638C331.274 101.017 368.618 105.624 408.722 109.624C442.515 112.991 478.961 115.473 518.89 116.534C548.194 117.313 577.525 117.282 606.91 116.744C646.92 116.002 686.206 114.767 724.059 112.556C787.237 108.851 847.091 104.058 905.565 98.8479C960.288 93.9729 1015.99 89.4246 1073.77 85.4941C1137.52 81.1635 1203.28 77.8235 1271.7 75.8174C1319.32 74.4227 1367.26 73.8092 1415.53 74.7703C1494.58 76.3618 1569.77 79.9615 1641.59 85.3286C1665.44 87.1107 1688.15 89.2445 1711.78 91.0915C1780.94 96.4984 1849.57 102.054 1916.52 108.104C1924.88 108.855 1934.16 109.389 1941.23 110.474Z" fill="url(#paint2_linear_0_667)" fill-opacity="0.8"/>
<path d="M1943.91 544.614H5.85254V139.375C48.8654 133.457 93.2223 128.725 138.49 125.224C178.618 122.168 219.149 119.886 260.126 119.071C297.022 118.337 334.066 118.47 370.881 120.291C422.374 122.842 472.574 126.946 520.566 133.869C556.183 139.006 590.709 144.891 624.791 151.099C641.071 154.064 657.62 156.86 674.546 159.406C705.033 163.961 736.852 167.354 767.931 171.398C815.5 177.666 866.996 179.744 917.589 177.438C987.114 174.397 1054.74 167.585 1117.85 157.265C1180.06 147.127 1238.91 134.948 1299.64 123.894C1340.28 116.516 1381.46 109.565 1424.07 103.581C1486.37 94.8404 1550.83 88.3365 1614.83 81.3452C1647.15 77.8154 1679.78 74.5452 1712.95 72.0493C1758.64 68.6152 1804.59 65.8688 1851.81 66.9163C1881.44 67.5767 1909 70.8834 1936.73 74.0397C1938.87 74.2323 1940.75 74.6686 1942.05 75.2751C1943.35 75.8816 1943.99 76.6211 1943.86 77.3691C1943.86 78.8493 1944 80.325 1944 81.8052C1944 359.844 1944 261.797 1944 539.836C1944 541.43 1943.93 543.011 1943.91 544.614Z" fill="#35C4F1" fill-opacity="0.3"/>
<path d="M1942.21 150.616V530.79H5.85254V333.549C11.9543 332.995 16.6984 331.273 21.8594 329.948C62.972 319.359 107.458 314.853 154.995 316.213C203.473 317.597 250.741 321.852 296.974 328.278C340.479 334.32 382.99 341.534 425.742 348.533C480.846 357.569 536.514 365.536 595.945 367.212C627.394 368.105 658.279 367.521 688.385 362.98C711.253 359.574 733.634 355.58 755.41 351.02C835.377 334.092 909.7 313.207 981.845 290.758C1036.95 273.603 1089.96 255.198 1143.53 237.133C1197.1 219.067 1253.06 202.39 1313.86 189.076C1381.08 174.35 1451.8 162.87 1524.78 154.842C1600.61 146.489 1677.67 142.093 1756.04 142.735C1802.38 143.115 1848.52 144.895 1894.47 147.405C1910.45 148.322 1926.55 148.841 1942.21 150.616Z" fill="#0976A5" fill-opacity="0.48"/>
<path d="M6.07495 273.867V2034.6H1944C1944 2032.18 1944 2029.75 1944 2027.33V472.721C1944 470.43 1943.92 468.14 1943.82 465.855C1943.83 464.976 1943.3 464.109 1942.28 463.33C1941.26 462.551 1939.78 461.884 1937.97 461.388C1921.45 456.494 1904.31 451.984 1885.54 448.573C1862.19 444.331 1837.84 441.184 1813.43 438.156C1766.82 432.286 1718.31 429.199 1669.45 428.994C1629.74 428.871 1590.15 427.247 1551.2 424.144C1535.34 422.87 1520.05 420.643 1505.85 417.537C1469.71 409.686 1435.58 400.562 1402.27 390.959C1335.39 371.672 1268.34 352.492 1198.61 334.865C1156.48 324.211 1113.14 314.43 1067.37 306.449C1007.28 295.967 944.412 290.988 878.986 290.821C868.214 290.821 857.523 291.484 846.765 291.521C808.687 291.662 771.012 293.677 733.202 295.208C679.572 297.363 626.831 301.674 573.685 305.107C529.534 307.947 485.934 312.113 441.325 313.918C409.225 315.217 377.274 317.222 344.837 316.726C330.026 316.499 315.362 315.648 300.632 315.109C257.8 313.535 216.531 309.327 176.19 303.469C150.863 299.794 126.451 295.251 101.581 291.128C71.7566 286.192 41.7168 281.428 13.5753 274.961C11.1439 274.525 8.63704 274.16 6.07495 273.867Z" fill="url(#paint3_linear_0_667)"/>
<path d="M1941.23 273.867V2008.57L0 2012.19C0 2009.83 0 2001.43 0 1999.07L7.07741 467.662C7.07741 465.43 7.15821 463.198 7.25228 460.971C7.24372 460.114 7.77173 459.27 8.7907 458.511C9.80968 457.752 11.2884 457.102 13.0979 456.618C29.5871 451.849 46.6947 447.453 65.4282 444.129C88.7307 439.995 113.028 436.928 137.392 433.977C183.908 428.256 232.329 425.248 281.091 425.048C320.724 424.928 360.238 423.346 399.109 420.322C414.941 419.08 430.201 416.909 444.371 413.883C480.44 406.231 514.506 397.339 547.754 387.981C614.503 369.184 681.428 350.492 751.013 333.313C793.062 322.93 836.322 313.398 881.999 305.62C941.976 295.405 1004.72 290.552 1070.02 290.39C1080.77 290.39 1091.44 291.036 1102.18 291.072C1140.18 291.209 1177.78 293.173 1215.52 294.665C1269.05 296.765 1321.68 300.967 1374.73 304.312C1418.79 307.08 1462.31 311.14 1506.83 312.899C1538.87 314.165 1570.76 316.119 1603.13 315.636C1617.91 315.415 1632.55 314.585 1647.25 314.06C1690 312.526 1731.19 308.425 1771.45 302.716C1796.73 299.134 1821.09 294.707 1845.91 290.689C1875.68 285.878 1905.66 281.236 1933.75 274.933C1936.17 274.508 1938.68 274.152 1941.23 273.867Z" fill="url(#paint4_linear_0_667)" fill-opacity="0.7"/>
<path d="M1946.12 814.524V1531.01H4.81494V765.771C58.3886 765.664 110.655 767.397 161.494 772.077C208.479 776.403 252.116 782.827 290.388 791.052C327.146 798.904 364.699 806.513 405.028 813.12C439.01 818.682 475.66 822.78 515.813 824.534C545.281 825.821 574.776 825.769 604.325 824.88C644.56 823.655 684.066 821.615 722.131 817.962C785.662 811.843 845.852 803.926 904.653 795.32C959.682 787.268 1015.69 779.756 1073.8 773.263C1137.91 766.11 1204.04 760.593 1272.84 757.28C1320.73 754.976 1368.94 753.963 1417.47 755.55C1496.97 758.179 1572.57 764.125 1644.79 772.99C1668.78 775.933 1691.62 779.458 1715.39 782.509C1784.93 791.44 1853.94 800.616 1921.27 810.609C1929.68 811.85 1939.01 812.732 1946.12 814.524Z" fill="url(#paint5_linear_0_667)"/>
<path d="M4.81515 949.243V1531.01H1946.12V909.658C1892.55 909.57 1840.28 910.978 1789.44 914.777C1742.46 918.29 1698.82 923.506 1660.55 930.185C1623.79 936.56 1586.24 942.739 1545.91 948.103C1511.93 952.619 1475.28 955.947 1435.12 957.371C1405.65 958.416 1376.16 958.374 1346.61 957.652C1306.38 956.658 1266.87 955.001 1228.8 952.035C1165.27 947.067 1105.08 940.638 1046.28 933.651C991.253 927.112 935.24 921.012 877.139 915.741C813.029 909.933 746.897 905.453 678.097 902.763C630.21 900.892 581.999 900.069 533.465 901.358C453.967 903.493 378.362 908.321 306.14 915.519C282.156 917.909 259.317 920.771 235.549 923.248C166.008 930.499 96.9927 937.95 29.6618 946.064C21.2539 947.072 11.9296 947.789 4.81515 949.243Z" fill="url(#paint6_linear_0_667)" fill-opacity="0.3"/>
<path d="M6.00814 2779.84H1947.31L1947.31 1460.91C1904.23 1454.63 1859.79 1449.61 1814.45 1445.89C1774.26 1442.65 1733.66 1440.23 1692.61 1439.36C1655.65 1438.58 1618.55 1438.72 1581.67 1440.66C1530.09 1443.36 1479.81 1447.72 1431.73 1455.07C1396.06 1460.52 1361.47 1466.77 1327.34 1473.35C1311.03 1476.5 1294.45 1479.47 1277.5 1482.17C1246.96 1487.01 1215.09 1490.61 1183.95 1494.9C1136.31 1501.55 1084.72 1503.76 1034.05 1501.31C964.404 1498.08 896.669 1490.85 833.448 1479.9C771.132 1469.14 712.188 1456.21 651.356 1444.48C610.648 1436.65 569.401 1429.27 526.71 1422.92C464.314 1413.64 399.745 1406.74 335.635 1399.32C303.263 1395.57 270.581 1392.1 237.346 1389.45C191.58 1385.81 145.558 1382.89 98.2547 1384.01C68.5804 1384.71 40.9699 1388.22 13.1975 1391.57C11.0537 1391.77 9.17191 1392.23 7.8697 1392.88C6.56749 1393.52 5.92446 1394.31 6.04872 1395.1C6.04872 1396.67 5.91386 1398.24 5.91386 1399.81C5.91386 1694.91 5.91386 2479.67 5.91386 2774.77C5.91386 2776.46 5.98116 2778.14 6.00814 2779.84Z" fill="url(#paint7_linear_0_667)"/>
<path d="M1947.22 2779.81H5.91553L5.91553 1681.06C49.0006 1672.22 93.4318 1665.14 138.775 1659.91C178.97 1655.34 219.57 1651.93 260.615 1650.71C297.573 1649.61 334.679 1649.81 371.556 1652.53C423.135 1656.35 473.42 1662.48 521.492 1672.83C557.169 1680.51 591.753 1689.31 625.892 1698.59C642.199 1703.02 658.776 1707.2 675.731 1711.01C706.268 1717.81 738.141 1722.89 769.272 1728.93C816.921 1738.3 868.503 1741.41 919.181 1737.96C988.823 1733.41 1056.56 1723.23 1119.78 1707.81C1182.09 1692.65 1241.04 1674.44 1301.87 1657.92C1342.58 1646.89 1383.83 1636.5 1426.52 1627.55C1488.91 1614.49 1553.48 1604.77 1617.59 1594.32C1649.96 1589.04 1682.65 1584.15 1715.88 1580.42C1761.65 1575.29 1807.67 1571.18 1854.97 1572.75C1884.65 1573.73 1912.26 1578.68 1940.03 1583.4C1942.17 1583.68 1944.05 1584.34 1945.36 1585.24C1946.66 1586.15 1947.3 1587.25 1947.18 1588.37C1947.18 1590.58 1947.31 1592.79 1947.31 1595C1947.31 2010.63 1947.31 2357.04 1947.31 2772.67C1947.31 2775.05 1947.25 2777.41 1947.22 2779.81Z" fill="url(#paint8_linear_0_667)" fill-opacity="0.5"/>
<path d="M1948 2136.5V2779.15H5.81494C5.81494 2776.58 5.81494 2558.65 5.81494 2556.07L5.81494 2347.86C5.81494 2345.43 5.89608 2342.99 5.99054 2340.57C5.98194 2339.63 6.51215 2338.71 7.53535 2337.88C8.55855 2337.05 10.0435 2336.35 11.8604 2335.82C28.4181 2330.62 45.5967 2325.82 64.4079 2322.2C87.8073 2317.69 112.205 2314.34 136.67 2311.12C183.38 2304.88 232.002 2301.6 280.966 2301.39C320.763 2301.25 360.442 2299.53 399.474 2296.23C415.372 2294.88 430.695 2292.51 444.924 2289.21C481.143 2280.86 515.351 2271.16 548.736 2260.96C615.763 2240.46 682.965 2220.07 752.839 2201.33C795.063 2190.01 838.502 2179.61 884.369 2171.13C944.595 2159.99 1007.6 2154.69 1073.17 2154.52C1083.97 2154.52 1094.68 2155.22 1105.46 2155.26C1143.62 2155.41 1181.38 2157.55 1219.27 2159.18C1273.02 2161.47 1325.88 2166.05 1379.14 2169.7C1423.39 2172.72 1467.09 2177.15 1511.79 2179.07C1543.96 2180.45 1575.99 2182.58 1608.49 2182.05C1623.34 2181.81 1638.03 2180.91 1652.8 2180.33C1695.72 2178.66 1737.08 2174.19 1777.51 2167.96C1802.89 2164.05 1827.36 2159.23 1852.28 2154.84C1882.17 2149.6 1912.28 2144.53 1940.48 2137.66C1942.92 2137.2 1945.43 2136.81 1948 2136.5Z" fill="url(#paint9_linear_0_667)" fill-opacity="0.4"/>
<path d="M5.81485 2666.35V2779.84H1944C1937.97 2733.04 1944 2778.85 1944 2779.84L1944 2747.09C1944 2746.16 1943.92 2745.23 1943.82 2744.31C1943.83 2743.95 1943.3 2743.6 1942.28 2743.28C1941.26 2742.97 1939.78 2742.69 1937.97 2742.49C1921.44 2740.51 1904.3 2738.67 1885.53 2737.29C1862.18 2735.57 1837.83 2734.29 1813.41 2733.06C1766.8 2730.68 1718.28 2729.42 1669.41 2729.34C1629.7 2729.29 1590.1 2728.63 1551.15 2727.37C1535.29 2726.85 1519.99 2725.95 1505.8 2724.69C1469.65 2721.5 1435.51 2717.79 1402.2 2713.89C1335.31 2706.06 1268.24 2698.27 1198.51 2691.12C1156.38 2686.79 1113.03 2682.82 1067.25 2679.58C1007.15 2675.32 944.277 2673.3 878.843 2673.23C868.07 2673.23 857.377 2673.5 846.618 2673.52C808.534 2673.57 770.854 2674.39 733.04 2675.01C679.402 2675.89 626.654 2677.64 573.501 2679.03C529.344 2680.19 485.738 2681.88 441.124 2682.61C409.019 2683.14 377.063 2683.95 344.622 2683.75C329.809 2683.66 315.143 2683.31 300.411 2683.09C257.574 2682.46 216.299 2680.75 175.953 2678.37C150.622 2676.88 126.207 2675.03 101.334 2673.36C71.5053 2671.35 41.4614 2669.42 13.3161 2666.79C10.8844 2666.61 8.37728 2666.47 5.81485 2666.35Z" fill="url(#paint10_linear_0_667)" fill-opacity="0.4"/>
<path d="M1943.91 2779.84H5.81494L5.81494 2587.56C48.8287 2578.84 93.1864 2571.86 138.455 2566.7C178.583 2562.19 219.116 2558.82 260.093 2557.62C296.99 2556.54 334.035 2556.74 370.85 2559.42C422.344 2563.18 472.546 2569.23 520.538 2579.44C556.156 2587.02 590.683 2595.69 624.765 2604.85C641.045 2609.22 657.595 2613.34 674.522 2617.1C705.009 2623.81 736.829 2628.82 767.908 2634.78C815.478 2644.02 866.975 2647.09 917.569 2643.69C987.096 2639.2 1054.72 2629.16 1117.83 2613.94C1180.05 2598.99 1238.89 2581.03 1299.63 2564.73C1340.27 2553.86 1381.44 2543.61 1424.06 2534.78C1486.36 2521.89 1550.82 2512.3 1614.82 2502C1647.14 2496.79 1679.77 2491.97 1712.95 2488.29C1758.64 2483.22 1804.59 2479.18 1851.81 2480.72C1881.44 2481.69 1909 2486.57 1936.73 2491.22C1938.87 2491.51 1940.75 2492.15 1942.05 2493.05C1943.35 2493.94 1943.99 2495.03 1943.86 2496.13C1943.86 2498.32 1944 2500.49 1944 2502.67C1944 2912.65 1943.91 2369.86 1943.91 2779.84C1943.93 2777.47 1942.05 2493.05 1943.91 2779.84Z" fill="url(#paint11_linear_0_667)" fill-opacity="0.5"/>
<path d="M1944 2537.13V2779.84H5.81494C5.81494 2777.6 5.81494 2588.72 5.81494 2586.49V2720.32C5.81494 2718.21 5.89591 2716.1 5.99018 2714C5.9816 2713.19 6.51071 2712.39 7.53181 2711.67C8.5529 2710.95 10.0348 2710.34 11.848 2709.88C28.3715 2705.37 45.5148 2701.22 64.2873 2698.08C87.6384 2694.17 111.986 2691.27 136.401 2688.48C183.014 2683.07 231.536 2680.23 280.4 2680.04C320.115 2679.93 359.712 2678.43 398.663 2675.57C414.528 2674.4 429.82 2672.35 444.019 2669.49C480.164 2662.25 514.301 2653.85 547.618 2645C614.506 2627.23 681.57 2609.56 751.3 2593.33C793.437 2583.51 836.787 2574.5 882.56 2567.15C942.661 2557.49 1005.54 2552.9 1070.97 2552.75C1081.74 2552.75 1092.44 2553.36 1103.2 2553.4C1141.28 2553.52 1178.96 2555.38 1216.77 2556.79C1270.41 2558.78 1323.16 2562.75 1376.31 2565.91C1420.47 2568.53 1464.08 2572.37 1508.69 2574.03C1540.8 2575.22 1572.75 2577.07 1605.19 2576.61C1620.01 2576.41 1634.67 2575.62 1649.4 2575.13C1692.24 2573.68 1733.52 2569.8 1773.86 2564.4C1799.19 2561.02 1823.61 2556.83 1848.48 2553.03C1878.31 2548.49 1908.35 2544.1 1936.5 2538.14C1938.93 2537.74 1941.44 2537.4 1944 2537.13Z" fill="url(#paint12_linear_0_667)" fill-opacity="0.8"/>
<g opacity="0.9">
<path d="M1943.88 2780H5.81497L5.84096 2666.56C48.8541 2663.64 93.2112 2661.32 138.479 2659.59C178.607 2658.09 219.139 2656.97 260.115 2656.57C297.012 2656.21 334.056 2656.27 370.871 2657.17C422.365 2658.42 472.566 2660.44 520.558 2663.85C556.175 2666.38 590.701 2669.27 624.783 2672.32C641.063 2673.78 657.613 2675.16 674.539 2676.41C705.026 2678.65 736.845 2680.32 767.924 2682.31C815.493 2685.4 866.99 2686.42 917.583 2685.28C987.109 2683.79 1054.73 2680.44 1117.85 2675.36C1180.06 2670.37 1238.9 2664.38 1299.63 2658.94C1340.27 2655.31 1381.45 2651.89 1424.07 2648.95C1486.36 2644.65 1550.83 2641.45 1614.83 2638.01C1647.15 2636.27 1679.77 2634.66 1712.95 2633.43C1758.64 2631.74 1804.59 2630.39 1851.81 2630.91C1881.44 2631.23 1909 2632.86 1936.73 2634.41C1938.87 2634.51 1940.75 2634.72 1942.05 2635.02C1943.35 2635.32 1943.99 2635.68 1943.86 2636.05C1943.86 2636.78 1944 2637.5 1944 2638.23C1944 2775.03 1943.97 2640.85 1943.97 2777.65C1943.97 2778.43 1943.91 2779.21 1943.88 2780Z" fill="url(#paint13_linear_0_667)" fill-opacity="0.7"/>
</g>
<defs>
<linearGradient id="paint0_linear_0_667" x1="661.893" y1="2.50575e-05" x2="1171.59" y2="668.332" gradientUnits="userSpaceOnUse">
<stop stop-color="#82C3CC"/>
<stop offset="1" stop-color="#C8EFF4"/>
</linearGradient>
<linearGradient id="paint1_linear_0_667" x1="441.954" y1="83.4128" x2="587.17" y2="790.497" gradientUnits="userSpaceOnUse">
<stop offset="0.03125" stop-color="#4E9CC0"/>
<stop offset="0.54452" stop-color="#41B9DC"/>
<stop offset="0.909844" stop-color="#3BA3D6"/>
</linearGradient>
<linearGradient id="paint2_linear_0_667" x1="133.575" y1="-87.1578" x2="376.013" y2="792.618" gradientUnits="userSpaceOnUse">
<stop stop-color="#33B0DD"/>
<stop offset="1" stop-color="#207898"/>
</linearGradient>
<linearGradient id="paint3_linear_0_667" x1="1687.02" y1="883.646" x2="1635.38" y2="433.308" gradientUnits="userSpaceOnUse">
<stop offset="0.0187254" stop-color="#1F90BA"/>
<stop offset="1" stop-color="#C8EFF4"/>
</linearGradient>
<linearGradient id="paint4_linear_0_667" x1="1504.03" y1="409.34" x2="737.875" y2="1882.1" gradientUnits="userSpaceOnUse">
<stop offset="0.03125" stop-color="#4E9CC0"/>
<stop offset="0.54452" stop-color="#41B9DC"/>
<stop offset="0.909844" stop-color="#3BA3D6"/>
</linearGradient>
<linearGradient id="paint5_linear_0_667" x1="128.34" y1="488.086" x2="715.702" y2="1785.74" gradientUnits="userSpaceOnUse">
<stop stop-color="#90D3EB"/>
<stop offset="1" stop-color="#207898"/>
</linearGradient>
<linearGradient id="paint6_linear_0_667" x1="1822.6" y1="684.185" x2="1411.53" y2="1802.64" gradientUnits="userSpaceOnUse">
<stop stop-color="#90D3EB"/>
<stop offset="1" stop-color="#207898"/>
</linearGradient>
<linearGradient id="paint7_linear_0_667" x1="976.613" y1="1383.77" x2="976.613" y2="1891.02" gradientUnits="userSpaceOnUse">
<stop stop-color="#0085B0"/>
<stop offset="1" stop-color="#005167"/>
</linearGradient>
<linearGradient id="paint8_linear_0_667" x1="976.614" y1="1572.41" x2="976.614" y2="2286.83" gradientUnits="userSpaceOnUse">
<stop stop-color="#0085B0"/>
<stop offset="1" stop-color="#005167"/>
</linearGradient>
<linearGradient id="paint9_linear_0_667" x1="976.907" y1="2136.5" x2="976.907" y2="2563.8" gradientUnits="userSpaceOnUse">
<stop stop-color="#002B3E"/>
<stop offset="1" stop-color="#1685B1"/>
</linearGradient>
<linearGradient id="paint10_linear_0_667" x1="974.907" y1="2666.35" x2="974.907" y2="2829.59" gradientUnits="userSpaceOnUse">
<stop stop-color="#082F3C"/>
<stop offset="1" stop-color="#002B3E"/>
</linearGradient>
<linearGradient id="paint11_linear_0_667" x1="974.907" y1="2480.39" x2="974.907" y2="3185.1" gradientUnits="userSpaceOnUse">
<stop stop-color="#0B5269"/>
<stop offset="1" stop-color="#005167"/>
</linearGradient>
<linearGradient id="paint12_linear_0_667" x1="974.907" y1="2736.5" x2="974.907" y2="3106.84" gradientUnits="userSpaceOnUse">
<stop stop-color="#003E52"/>
<stop offset="1" stop-color="#002B3E"/>
</linearGradient>
<linearGradient id="paint13_linear_0_667" x1="974.921" y1="2630.8" x2="974.921" y2="2865.93" gradientUnits="userSpaceOnUse">
<stop stop-color="#152428"/>
<stop offset="1" stop-color="#005167"/>
</linearGradient>
</defs>
</svg>
