<svg width="1939" height="418" viewBox="0 0 1939 418" fill="none" xmlns="http://www.w3.org/2000/svg">
<path fill-rule="evenodd" clip-rule="evenodd" d="M0 418V0C2.56348 0.161621 5.07129 0.36377 7.50391 0.604492C33.0303 3.84521 60.1172 6.31201 87.1895 8.77783L95.5586 9.54102C103.71 10.2876 111.812 11.0591 119.914 11.8306C136.543 13.4136 153.169 14.9966 170.209 16.3628C210.572 19.6006 251.864 21.9272 294.72 22.7969C299.634 22.896 304.54 23.0146 309.447 23.1333C319.258 23.3701 329.071 23.6074 338.949 23.6909C364.249 23.9043 389.254 23.2778 414.264 22.6514C421.337 22.4741 428.41 22.2969 435.491 22.1387C464.089 21.499 492.271 20.3242 520.45 19.1494C536.252 18.4907 552.052 17.832 567.924 17.2681C583.351 16.7178 598.744 16.1265 614.135 15.5352C651.793 14.0884 689.438 12.6421 727.529 11.7964C735.315 11.6221 743.096 11.4365 750.875 11.251C780.894 10.5352 810.897 9.81982 841.155 9.75879C846.378 9.74854 851.584 9.65723 856.791 9.56592C862.317 9.46875 867.845 9.37158 873.395 9.37158C938.856 9.46387 1001.76 12.2163 1061.88 18.0103C1107.68 22.4219 1151.04 27.8281 1193.2 33.7173C1262.96 43.4614 1330.05 54.063 1396.97 64.7241C1430.3 70.0322 1464.45 75.0757 1500.61 79.4155C1514.81 81.1323 1530.11 82.3638 1545.98 83.0679C1584.95 84.7832 1624.57 85.6807 1664.3 85.7485C1713.18 85.8618 1761.72 87.5679 1808.36 90.813C1832.78 92.4868 1857.14 94.2266 1880.5 96.5708C1899.28 98.4565 1916.43 100.95 1932.96 103.654C1934.78 103.929 1936.26 104.298 1937.28 104.728C1938.3 105.159 1938.83 105.638 1938.82 106.124C1938.87 106.764 1938.92 107.404 1938.95 108.045C1938.98 108.669 1939 109.294 1939 109.919L1939 418H0Z" fill="white"/>
</svg>
