<svg width="1939" height="161" viewBox="0 0 1939 161" fill="none" xmlns="http://www.w3.org/2000/svg">
<path fill-rule="evenodd" clip-rule="evenodd" d="M0.00146484 0L0.00195312 94.6279C0.00195312 95.3921 0.0830078 96.1567 0.177734 96.9194C0.173828 97.0576 0.289062 97.1948 0.519043 97.3286C0.777344 97.479 1.17969 97.6245 1.71973 97.7622C2.74121 98.022 4.22363 98.2446 6.0376 98.4102C22.5684 100.043 39.7188 101.549 58.499 102.688C81.8599 104.104 106.218 105.154 130.643 106.165C177.275 108.124 225.818 109.154 274.702 109.222C314.434 109.264 354.047 109.806 393.016 110.841C408.887 111.267 424.186 112.01 438.391 113.046C474.55 115.667 508.702 118.712 542.032 121.917C608.949 128.355 676.041 134.757 745.8 140.64C787.955 144.196 831.323 147.461 877.115 150.125C937.242 153.624 1000.14 155.286 1065.61 155.341C1071.16 155.341 1076.68 155.283 1082.21 155.224C1087.42 155.169 1092.62 155.114 1097.84 155.107C1128.09 155.07 1158.08 154.639 1188.09 154.207C1195.88 154.095 1203.67 153.982 1211.47 153.877C1249.57 153.366 1287.22 152.493 1324.89 151.619C1340.27 151.262 1355.66 150.905 1371.08 150.573C1386.96 150.232 1402.77 149.834 1418.59 149.436C1446.75 148.727 1474.92 148.018 1503.51 147.632C1510.58 147.537 1517.64 147.43 1524.7 147.323C1549.72 146.944 1574.74 146.566 1600.05 146.695C1609.93 146.745 1619.74 146.888 1629.54 147.031C1634.45 147.103 1639.36 147.174 1644.28 147.234C1687.14 147.76 1728.43 149.165 1768.79 151.12C1785.83 151.944 1802.46 152.9 1819.08 153.856C1827.19 154.322 1835.29 154.788 1843.44 155.239L1851.82 155.7C1878.89 157.188 1905.97 158.678 1931.5 160.635C1933.93 160.78 1936.44 160.902 1939 161V0H0.00146484Z" fill="white"/>
</svg>
