<svg width="1920" height="2018" viewBox="0 0 1920 2018" fill="none" xmlns="http://www.w3.org/2000/svg">
<path d="M1920 0L1920 2017.04H0C0 2015.71 0 871.521 0 870.196L0.00215615 108.842C0.00215615 107.588 0.0823797 106.335 0.175762 105.084C0.167263 104.603 0.691402 104.128 1.70292 103.702C2.71443 103.276 4.18237 102.911 5.97856 102.639C22.3471 99.9606 39.3295 97.4917 57.9258 95.6246C81.0579 93.3032 105.177 91.5806 129.363 89.9229C175.538 86.71 223.605 85.0204 272.01 84.9085C311.353 84.8411 350.578 83.9523 389.164 82.2538C404.88 81.5565 420.029 80.3373 434.095 78.6376C469.9 74.3399 503.717 69.3462 536.721 64.0899C602.982 53.5331 669.417 43.0353 738.492 33.387C780.234 27.5556 823.177 22.202 868.52 17.8336C928.058 12.0965 990.344 9.37103 1055.16 9.27959C1065.84 9.27959 1076.43 9.64239 1087.09 9.66304C1124.81 9.73973 1162.14 10.8429 1199.6 11.6806C1252.73 12.8605 1304.99 15.2202 1357.64 17.0991C1401.38 18.6536 1444.58 20.9336 1488.78 21.9218C1520.58 22.6326 1552.24 23.7299 1584.37 23.4585C1599.05 23.3346 1613.57 22.8686 1628.17 22.5736C1670.6 21.7123 1711.49 19.4087 1751.46 16.2024C1776.55 14.1907 1800.74 11.7042 1825.38 9.44772C1854.93 6.74584 1884.69 4.13835 1912.57 0.598778C1914.98 0.360171 1917.46 0.160065 1920 0Z" fill="white"/>
</svg>
