<svg width="1920" height="1203" viewBox="0 0 1920 1203" fill="none" xmlns="http://www.w3.org/2000/svg">
<mask id="mask0_2058_256" style="mask-type:alpha" maskUnits="userSpaceOnUse" x="952" y="0" width="968" height="1203">
<rect x="952.033" width="967.967" height="1202.99" fill="#D9D9D9"/>
</mask>
<g mask="url(#mask0_2058_256)">
<path d="M1920 0V1202.99H-3.9834C-3.9834 1201.4 -3.9834 1067.23 -3.9834 1065.65L-3.9834 130.127C-3.9834 128.628 -3.90302 127.129 -3.80945 125.634C-3.81796 125.059 -3.29273 124.491 -2.27911 123.982C-1.2655 123.472 0.205492 123.036 2.00542 122.711C18.4079 119.509 35.4256 116.557 54.0605 114.325C77.2405 111.549 101.41 109.49 125.646 107.508C171.917 103.667 220.084 101.647 268.589 101.513C308.013 101.432 347.32 100.37 385.987 98.3391C401.735 97.5055 416.915 96.0478 431.01 94.0157C466.89 88.8776 500.777 82.9073 533.849 76.6232C600.248 64.0019 666.82 51.4512 736.04 39.9161C777.868 32.9443 820.9 26.5437 866.337 21.321C925.999 14.4621 988.414 11.2036 1053.37 11.0943C1064.06 11.0943 1074.68 11.528 1085.36 11.5527C1123.16 11.6444 1160.57 12.9633 1198.1 13.9648C1251.35 15.3754 1303.71 18.1966 1356.47 20.443C1400.31 22.3014 1443.59 25.0274 1487.88 26.2087C1519.75 27.0586 1551.47 28.3705 1583.68 28.046C1598.38 27.8979 1612.94 27.3407 1627.56 26.9881C1670.09 25.9583 1711.06 23.2042 1751.11 19.3709C1776.25 16.9658 1800.49 13.993 1825.18 11.2953C1854.79 8.06504 1884.61 4.94764 1912.55 0.715874C1914.97 0.430605 1917.46 0.191367 1920 0Z" fill="url(#paint0_linear_2058_256)"/>
</g>
<mask id="mask1_2058_256" style="mask-type:alpha" maskUnits="userSpaceOnUse" x="0" y="13" width="953" height="1190">
<rect y="13.9419" width="952.033" height="1189.05" fill="#D9D9D9"/>
</mask>
<g mask="url(#mask1_2058_256)">
<path d="M1920 0V1202.99H-3.9834C-3.9834 1201.4 -3.9834 1067.23 -3.9834 1065.65L-3.9834 130.127C-3.9834 128.628 -3.90302 127.129 -3.80945 125.634C-3.81796 125.059 -3.29273 124.491 -2.27911 123.982C-1.2655 123.472 0.205492 123.036 2.00542 122.711C18.4079 119.509 35.4256 116.557 54.0605 114.325C77.2405 111.549 101.41 109.49 125.646 107.508C171.917 103.667 220.084 101.647 268.589 101.513C308.013 101.432 347.32 100.37 385.987 98.3391C401.735 97.5055 416.915 96.0478 431.01 94.0157C466.89 88.8776 500.777 82.9073 533.849 76.6232C600.248 64.0019 666.82 51.4512 736.04 39.9161C777.868 32.9443 820.9 26.5437 866.337 21.321C925.999 14.4621 988.414 11.2036 1053.37 11.0943C1064.06 11.0943 1074.68 11.528 1085.36 11.5527C1123.16 11.6444 1160.57 12.9633 1198.1 13.9648C1251.35 15.3754 1303.71 18.1966 1356.47 20.443C1400.31 22.3014 1443.59 25.0274 1487.88 26.2087C1519.75 27.0586 1551.47 28.3705 1583.68 28.046C1598.38 27.8979 1612.94 27.3407 1627.56 26.9881C1670.09 25.9583 1711.06 23.2042 1751.11 19.3709C1776.25 16.9658 1800.49 13.993 1825.18 11.2953C1854.79 8.06504 1884.61 4.94764 1912.55 0.715874C1914.97 0.430605 1917.46 0.191367 1920 0Z" fill="url(#paint1_linear_2058_256)"/>
</g>
<defs>
<linearGradient id="paint0_linear_2058_256" x1="958.008" y1="807.343" x2="958.008" y2="1070.41" gradientUnits="userSpaceOnUse">
<stop stop-color="#2C6879"/>
<stop offset="1" stop-color="#002B3E"/>
</linearGradient>
<linearGradient id="paint1_linear_2058_256" x1="958.008" y1="807.343" x2="958.008" y2="1070.41" gradientUnits="userSpaceOnUse">
<stop stop-color="#045167"/>
<stop offset="1" stop-color="#002B3E"/>
</linearGradient>
</defs>
</svg>
