<svg width="1917" height="103" viewBox="0 0 1917 103" fill="none" xmlns="http://www.w3.org/2000/svg">
<g opacity="0.9">
<path d="M1916.88 219.082H-22L-21.974 53.1519C21.0573 48.8931 65.433 45.4874 110.72 42.9684C150.865 40.7691 191.414 39.127 232.407 38.5403C269.319 38.0126 306.379 38.1077 343.21 39.4187C394.725 41.2542 444.947 44.2073 492.96 49.1893C528.592 52.8864 563.132 57.1211 597.229 61.5885C613.516 63.7223 630.072 65.7347 647.005 67.5669C677.505 70.8445 709.338 73.2864 740.43 76.1969C788.019 80.7072 839.537 82.2026 890.152 80.543C959.707 78.3548 1027.36 73.4531 1090.5 66.0264C1152.74 58.7304 1211.61 49.9661 1272.36 42.0113C1313.02 36.7015 1354.22 31.6999 1396.85 27.3931C1459.17 21.1034 1523.66 16.4229 1587.69 11.3918C1620.02 8.8516 1652.66 6.49828 1685.86 4.70214C1731.57 2.23082 1777.53 0.254405 1824.77 1.00826C1854.41 1.48351 1881.99 3.86307 1909.73 6.13446C1911.87 6.2731 1913.75 6.58709 1915.05 7.02353C1916.35 7.45996 1916.99 7.99217 1916.87 8.5304C1916.87 9.59563 1917 10.6576 1917 11.7228C1917 211.808 1916.97 15.5582 1916.97 215.644C1916.97 216.791 1916.91 217.928 1916.88 219.082Z" fill="url(#paint0_linear_0_200)" fill-opacity="0.7"/>
</g>
<defs>
<linearGradient id="paint0_linear_0_200" x1="947.513" y1="0.845703" x2="947.513" y2="344.775" gradientUnits="userSpaceOnUse">
<stop stop-color="#152428"/>
<stop offset="1" stop-color="#005167"/>
</linearGradient>
</defs>
</svg>
