<svg width="1920" height="197" viewBox="0 0 1920 197" fill="none" xmlns="http://www.w3.org/2000/svg">
<path d="M1926 0V197H-6C-6 196.21 -6 129.405 -6 128.616L-6 64.7922C-6 64.046 -5.91929 63.2997 -5.82532 62.5552C-5.83387 62.2687 -5.30645 61.9862 -4.28861 61.7325C-3.27078 61.4788 -1.79366 61.2615 0.0137715 61.0996C16.4846 59.5053 33.5732 58.0356 52.2857 56.9241C75.5624 55.5422 99.8321 54.5168 124.169 53.53C170.634 51.6174 219.001 50.6116 267.709 50.545C307.297 50.5048 346.767 49.9757 385.595 48.9647C401.409 48.5496 416.652 47.8238 430.806 46.8119C466.835 44.2536 500.864 41.2809 534.074 38.1519C600.749 31.8676 667.599 25.6184 737.107 19.8749C779.109 16.4035 822.32 13.2166 867.947 10.6161C927.857 7.20089 990.532 5.57845 1055.76 5.52402C1066.5 5.52402 1077.15 5.73999 1087.88 5.75229C1125.84 5.79794 1163.4 6.45464 1201.1 6.95331C1254.56 7.65567 1307.14 9.06038 1360.13 10.1789C1404.14 11.1042 1447.61 12.4615 1492.08 13.0498C1524.08 13.4729 1555.94 14.1261 1588.27 13.9646C1603.04 13.8908 1617.66 13.6134 1632.34 13.4378C1675.04 12.9251 1716.19 11.5537 1756.41 9.64509C1781.66 8.44757 1805.99 6.96736 1830.79 5.62411C1860.52 4.01571 1890.47 2.46351 1918.52 0.356445C1920.95 0.214405 1923.45 0.0952847 1926 0Z" fill="url(#paint0_linear_0_205)" fill-opacity="0.4"/>
<defs>
<linearGradient id="paint0_linear_0_205" x1="960" y1="0" x2="960" y2="130.985" gradientUnits="userSpaceOnUse">
<stop stop-color="#106884"/>
<stop offset="1" stop-color="#002B3E"/>
</linearGradient>
</defs>
</svg>
