<svg width="1932" height="501" viewBox="0 0 1932 501" fill="none" xmlns="http://www.w3.org/2000/svg">
<path d="M1932 1.67616e-05V501H0C0 500.339 0 444.463 0 443.803L0 54.193C0 53.5688 0.0807123 52.9447 0.174678 52.322C0.166126 52.0823 0.693549 51.846 1.71139 51.6338C2.72922 51.4216 4.20634 51.2399 6.01377 51.1045C22.4846 49.7709 39.5732 48.5417 58.2857 47.612C81.5624 46.4562 105.832 45.5985 130.169 44.7731C176.634 43.1734 225.001 42.3321 273.709 42.2764C313.297 42.2429 352.767 41.8003 391.595 40.9546C407.409 40.6075 422.652 40.0004 436.806 39.1541C472.835 37.0143 506.864 34.5279 540.074 31.9107C606.749 26.6545 673.599 21.4275 743.107 16.6236C785.109 13.7201 828.32 11.0545 873.947 8.87944C933.857 6.02293 996.532 4.6659 1061.76 4.62037C1072.5 4.62037 1083.15 4.80102 1093.88 4.8113C1131.84 4.84948 1169.4 5.39876 1207.1 5.81585C1260.56 6.40331 1313.14 7.57823 1366.13 8.51375C1410.14 9.28773 1453.61 10.423 1498.08 10.915C1530.08 11.2689 1561.94 11.8153 1594.27 11.6802C1609.04 11.6185 1623.66 11.3864 1638.34 11.2396C1681.04 10.8107 1722.19 9.6637 1762.41 8.06728C1787.66 7.06567 1811.99 5.8276 1836.79 4.70409C1866.52 3.35881 1896.47 2.06053 1924.52 0.298152C1926.95 0.179348 1929.45 0.079714 1932 1.67616e-05Z" fill="url(#paint0_linear_0_663)" fill-opacity="0.7"/>
<defs>
<linearGradient id="paint0_linear_0_663" x1="966" y1="336.229" x2="966" y2="445.786" gradientUnits="userSpaceOnUse">
<stop stop-color="#186176"/>
<stop offset="1" stop-color="#002B3E"/>
</linearGradient>
</defs>
</svg>
