<svg width="1932" height="630" viewBox="0 0 1932 630" fill="none" xmlns="http://www.w3.org/2000/svg">
<path d="M0 0V630H1932C1932 627.473 1932 413.834 1932 411.311L1932 207.204C1932 204.817 1931.92 202.431 1931.83 200.05C1931.83 199.133 1931.31 198.23 1930.29 197.419C1929.27 196.607 1927.79 195.912 1925.99 195.395C1909.52 190.296 1892.43 185.596 1873.71 182.042C1850.44 177.622 1826.17 174.343 1801.83 171.187C1755.37 165.071 1707 161.854 1658.29 161.641C1618.7 161.513 1579.23 159.821 1540.41 156.587C1524.59 155.26 1509.35 152.939 1495.19 149.703C1459.16 141.522 1425.14 132.015 1391.93 122.009C1325.25 101.912 1258.4 81.9268 1188.89 63.5593C1146.89 52.4579 1103.68 42.2662 1058.05 33.9499C998.143 23.0282 935.468 17.8397 870.242 17.6656C859.503 17.6656 848.845 18.3563 838.12 18.3956C800.158 18.5416 762.598 20.6417 724.904 22.2365C671.438 24.4826 618.858 28.9748 565.875 32.5517C521.858 35.511 478.392 39.8516 433.92 41.7327C401.918 43.086 370.064 45.1749 337.726 44.6583C322.96 44.4224 308.342 43.5352 293.656 42.9737C250.955 41.334 209.812 36.9485 169.595 30.8447C144.345 27.0151 120.008 22.2814 95.2142 17.9857C65.4808 12.8421 35.5328 7.87823 7.47742 1.1399C5.05347 0.685662 2.5542 0.304718 0 0Z" fill="url(#paint0_linear_0_787)" fill-opacity="0.6"/>
<defs>
<linearGradient id="paint0_linear_0_787" x1="966" y1="0" x2="966" y2="418.886" gradientUnits="userSpaceOnUse">
<stop stop-color="#106884"/>
<stop offset="1" stop-color="#002B3E"/>
</linearGradient>
</defs>
</svg>
