<svg width="1939" height="820" viewBox="0 0 1939 820" fill="none" xmlns="http://www.w3.org/2000/svg">
<path fill-rule="evenodd" clip-rule="evenodd" d="M1939 410L1939 0C1936.44 0.0325361 1933.93 0.0732113 1931.5 0.121713C1905.97 0.773918 1878.89 1.27044 1851.82 1.76669L1843.44 1.92042C1835.29 2.07061 1827.19 2.22581 1819.1 2.381C1802.46 2.69975 1785.83 3.01842 1768.79 3.29343C1728.43 3.94517 1687.14 4.41343 1644.28 4.5885C1639.37 4.60848 1634.47 4.63231 1629.57 4.65614C1619.75 4.70386 1609.93 4.75158 1600.05 4.76837C1574.75 4.81138 1549.74 4.68526 1524.72 4.55911C1517.65 4.52347 1510.58 4.48783 1503.51 4.456C1474.92 4.32734 1446.74 4.09094 1418.57 3.85457C1402.76 3.72192 1386.96 3.58928 1371.08 3.4757C1355.65 3.36487 1340.25 3.24582 1324.86 3.12678C1287.2 2.8356 1249.56 2.54453 1211.47 2.37429C1203.68 2.33923 1195.9 2.30188 1188.11 2.26454C1158.1 2.12052 1128.1 1.97657 1097.84 1.96419C1092.62 1.96215 1087.41 1.94374 1082.21 1.92532C1076.68 1.90579 1071.15 1.88624 1065.61 1.88624C1000.14 1.90483 937.242 2.45883 877.115 3.625C831.323 4.51296 787.955 5.60118 745.8 6.78652C676.041 8.74771 608.949 10.8816 542.032 13.0274C508.702 14.0959 474.55 15.1109 438.39 15.9845C424.185 16.33 408.887 16.5778 393.015 16.7196C354.047 17.0648 314.434 17.2455 274.702 17.2592C225.818 17.2819 177.276 17.6254 130.643 18.2785C106.218 18.6154 81.86 18.9656 58.4991 19.4374C39.7187 19.817 22.5682 20.3188 6.03773 20.8632C4.22375 20.9185 2.74129 20.9927 1.71977 21.0793C0.698244 21.166 0.168918 21.2624 0.177501 21.3603C0.0831949 21.6145 0.00217749 21.8693 0.00217749 22.1241L0 176.883V410L0.000314834 410L0 820C2.56348 819.968 5.07166 819.927 7.50439 819.878C33.0187 819.226 60.0926 818.73 87.1526 818.234C89.9555 818.183 92.7582 818.131 95.5591 818.08C103.714 817.929 111.819 817.774 119.923 817.619C136.549 817.3 153.172 816.982 170.209 816.707C210.572 816.055 251.864 815.587 294.72 815.411C299.632 815.392 304.537 815.368 309.443 815.344C319.255 815.296 329.069 815.248 338.949 815.232C364.253 815.189 389.261 815.315 414.274 815.441C421.344 815.477 428.414 815.512 435.491 815.544C464.076 815.673 492.246 815.909 520.412 816.145C536.227 816.278 552.039 816.411 567.924 816.524C583.351 816.635 598.745 816.754 614.135 816.873C651.794 817.164 689.438 817.456 727.53 817.626C735.318 817.661 743.1 817.698 750.881 817.735C780.898 817.879 810.899 818.023 841.155 818.036C846.378 818.038 851.585 818.056 856.793 818.075C862.319 818.094 867.846 818.114 873.394 818.114C938.856 818.095 1001.76 817.541 1061.88 816.375C1107.68 815.487 1151.04 814.399 1193.2 813.214C1262.96 811.252 1330.05 809.118 1396.97 806.973C1430.3 805.904 1464.45 804.889 1500.61 804.016C1514.81 803.67 1530.11 803.422 1545.98 803.28C1584.95 802.935 1624.57 802.755 1664.3 802.741C1713.18 802.718 1761.72 802.375 1808.36 801.722C1832.78 801.385 1857.14 801.034 1880.5 800.563C1899.28 800.183 1916.43 799.681 1932.96 799.137C1934.78 799.081 1936.26 799.007 1937.28 798.921C1938.3 798.834 1938.83 798.738 1938.82 798.64C1938.92 798.386 1939 798.131 1939 797.876L1939 643.117L1939 410Z" fill="url(#paint0_linear_0_869)"/>
<defs>
<linearGradient id="paint0_linear_0_869" x1="-980" y1="1072.12" x2="-964.004" y2="-299.643" gradientUnits="userSpaceOnUse">
<stop offset="0.119792" stop-color="#025369"/>
<stop offset="0.50127" stop-color="#011216"/>
<stop offset="0.838542" stop-color="#025369"/>
</linearGradient>
</defs>
</svg>
