<svg width="1920" height="1872" viewBox="0 0 1920 1872" fill="none" xmlns="http://www.w3.org/2000/svg">
<path fill-rule="evenodd" clip-rule="evenodd" d="M0 1872H1920V0C1917.3 0.905273 1914.66 2.0376 1912.09 3.38721C1885.2 21.5376 1856.66 35.355 1828.14 49.165C1825.2 50.5898 1822.26 52.0142 1819.32 53.4434C1810.73 57.6235 1802.19 61.9434 1793.66 66.2627C1776.14 75.1323 1758.62 84 1740.66 91.6528C1698.13 109.79 1654.63 122.821 1609.47 127.693C1604.3 128.249 1599.13 128.912 1593.97 129.575C1583.63 130.903 1573.28 132.231 1562.87 132.699C1536.21 133.896 1509.86 130.386 1483.5 126.876C1476.05 125.884 1468.61 124.892 1461.15 124.006C1431.03 120.425 1401.34 113.846 1371.66 107.268C1355 103.577 1338.34 99.8857 1321.61 96.7251C1305.35 93.6406 1289.13 90.3271 1272.91 87.0142C1233.24 78.9111 1193.58 70.8115 1153.45 66.0742C1145.24 65.0986 1137.04 64.0596 1128.84 63.0205C1097.22 59.0122 1065.61 55.0059 1033.73 54.6611C1028.22 54.6045 1022.74 54.0918 1017.25 53.5791C1011.43 53.0356 1005.6 52.4922 999.759 52.4922C930.786 53.0093 864.51 68.4268 801.158 100.88C752.91 125.591 707.216 155.875 662.801 188.862C589.299 243.44 518.609 302.823 448.103 362.54C412.985 392.273 377.001 420.521 338.902 444.833C323.935 454.447 307.816 461.344 291.093 465.289C250.035 474.896 208.297 479.924 166.434 480.305C114.928 480.938 63.7817 490.496 14.6475 508.67C9.75977 510.451 4.875 512.245 0 514.073V1872Z" fill="url(#paint0_linear_2053_283)"/>
<defs>
<linearGradient id="paint0_linear_2053_283" x1="898.5" y1="0" x2="898.5" y2="1244.69" gradientUnits="userSpaceOnUse">
<stop stop-color="#003E52"/>
<stop offset="1" stop-color="#002B3E"/>
</linearGradient>
</defs>
</svg>
