<svg width="1916" height="2008" viewBox="0 0 1916 2008" fill="none" xmlns="http://www.w3.org/2000/svg">
<path d="M1915.34 2008H0L0 180.698C42.5089 165.985 86.346 154.22 131.083 145.518C170.741 137.92 210.797 132.247 251.293 130.22C287.757 128.397 324.367 128.726 360.751 133.255C411.64 139.596 461.252 149.798 508.682 167.009C543.881 179.781 578.003 194.41 611.685 209.843C627.775 217.214 644.13 224.167 660.858 230.496C690.987 241.819 722.434 250.255 753.148 260.309C800.16 275.891 851.052 281.057 901.053 275.324C969.763 267.764 1036.59 250.831 1098.97 225.174C1160.45 199.97 1218.61 169.692 1278.62 142.211C1318.79 123.868 1359.48 106.589 1401.6 91.7111C1463.17 69.9824 1526.87 53.8133 1590.12 36.4326C1622.06 27.6573 1654.31 19.5275 1687.1 13.3225C1732.25 4.78504 1777.66 -2.04271 1824.33 0.561565C1853.61 2.20339 1880.85 10.4238 1908.25 18.2706C1910.36 18.7496 1912.22 19.8343 1913.51 21.342C1914.79 22.8497 1915.42 24.6883 1915.3 26.5477C1915.3 30.2276 1915.44 33.8963 1915.44 37.5762C1915.44 728.795 1915.44 1304.9 1915.44 1996.12C1915.44 2000.09 1915.37 2004.01 1915.34 2008Z" fill="url(#paint0_linear_0_171)" fill-opacity="0.5"/>
<defs>
<linearGradient id="paint0_linear_0_171" x1="957.718" y1="0" x2="957.718" y2="1188.14" gradientUnits="userSpaceOnUse">
<stop stop-color="#0085B0"/>
<stop offset="1" stop-color="#005167"/>
</linearGradient>
</defs>
</svg>
