<svg width="1920" height="2346" viewBox="0 0 1920 2346" fill="none" xmlns="http://www.w3.org/2000/svg">
<path d="M0.0933439 2345.58H1920L1920 129.614C1877.39 119.06 1833.45 110.621 1788.6 104.379C1748.85 98.9294 1708.7 94.8603 1668.11 93.4065C1631.56 92.0989 1594.86 92.3344 1558.39 95.5831C1507.38 100.131 1457.65 107.449 1410.11 119.794C1374.82 128.956 1340.62 139.449 1306.86 150.52C1290.73 155.807 1274.34 160.794 1257.57 165.334C1227.37 173.456 1195.84 179.507 1165.06 186.719C1117.93 197.895 1066.92 201.601 1016.8 197.488C947.926 192.066 880.938 179.92 818.413 161.517C756.784 143.437 698.49 121.719 638.328 102.008C598.069 88.8501 557.277 76.4561 515.057 65.784C453.347 50.1981 389.491 38.6 326.087 26.1329C294.072 19.8385 261.75 14.007 228.881 9.55618C183.62 3.43229 138.105 -1.46522 91.3232 0.402808C61.976 1.58048 34.6698 7.47698 7.20351 13.1054C5.08329 13.449 3.22225 14.227 1.93439 15.3085C0.646534 16.39 0.0105875 17.7088 0.133478 19.0425C0.133478 21.6821 0.000104649 24.3136 0.000104649 26.9532C0.000104649 522.762 0.000104649 1841.25 0.000104649 2337.06C0.000104649 2339.9 0.0666646 2342.72 0.0933439 2345.58Z" fill="url(#paint0_linear_0_168)"/>
<defs>
<linearGradient id="paint0_linear_0_168" x1="960" y1="0" x2="960" y2="852.25" gradientUnits="userSpaceOnUse">
<stop stop-color="#0085B0"/>
<stop offset="1" stop-color="#005167"/>
</linearGradient>
</defs>
</svg>
