<svg width="1920" height="3221" viewBox="0 0 1920 3221" fill="none" xmlns="http://www.w3.org/2000/svg">
<path d="M-24 0V3221H1948C1948 3216.56 1948 3212.13 1948 3207.7V363.773C1948 359.583 1947.92 355.393 1947.82 351.213C1947.83 349.604 1947.29 348.019 1946.25 346.594C1945.21 345.169 1943.71 343.95 1941.86 343.041C1925.05 334.089 1907.61 325.838 1888.51 319.597C1864.75 311.839 1839.98 306.082 1815.14 300.541C1767.71 289.803 1718.34 284.156 1668.62 283.782C1628.22 283.557 1587.93 280.586 1548.3 274.91C1532.16 272.579 1516.6 268.504 1502.15 262.823C1465.38 248.46 1430.64 231.77 1396.74 214.202C1328.69 178.919 1260.46 143.833 1189.51 111.587C1146.64 92.0966 1102.53 74.2037 1055.96 59.6035C994.809 40.429 930.836 31.3199 864.26 31.0143C853.298 31.0143 842.42 32.2269 831.472 32.2959C792.724 32.5522 754.387 36.2393 715.913 39.039C661.339 42.9824 607.671 50.869 553.59 57.1488C508.663 62.3441 464.297 69.9646 418.904 73.2672C386.239 75.643 353.726 79.3103 320.719 78.4034C305.647 77.9893 290.726 76.4317 275.736 75.4459C232.151 72.5672 190.156 64.8679 149.106 54.1519C123.333 47.4285 98.4923 39.1179 73.1855 31.5763C42.8365 22.546 12.2686 13.8312 -16.3678 2.00124C-18.8419 1.20377 -21.3928 0.534971 -24 0Z" fill="url(#paint0_linear_0_464)"/>
<defs>
<linearGradient id="paint0_linear_0_464" x1="1279.88" y1="0.000112358" x2="-16.6763" y2="386.125" gradientUnits="userSpaceOnUse">
<stop stop-color="#82C3CC"/>
<stop offset="1" stop-color="#C8EFF4"/>
</linearGradient>
</defs>
</svg>
