<svg width="1920" height="3180" viewBox="0 0 1920 3180" fill="none" xmlns="http://www.w3.org/2000/svg">
<path d="M1953 0V3173.38L-30 3180C-30 3175.68 -30 3160.33 -30 3156.01L-22.7703 354.519C-22.7703 350.436 -22.6878 346.353 -22.5917 342.279C-22.6004 340.712 -22.0611 339.166 -21.0202 337.778C-19.9793 336.389 -18.4687 335.201 -16.6203 334.315C0.223682 325.591 17.6994 317.549 36.8359 311.468C60.6399 303.907 85.4594 298.296 110.348 292.896C157.865 282.431 207.328 276.928 257.139 276.564C297.624 276.344 337.989 273.449 377.696 267.917C393.869 265.646 409.457 261.674 423.932 256.138C460.777 242.14 495.576 225.874 529.539 208.753C597.725 174.368 666.089 140.174 737.172 108.748C780.126 89.7539 824.316 72.3162 870.977 58.0874C932.244 39.4007 996.339 30.5233 1063.04 30.2254C1074.02 30.2254 1084.92 31.4072 1095.89 31.4744C1134.71 31.7242 1173.13 35.3174 1211.67 38.046C1266.35 41.889 1320.12 49.5751 1374.31 55.6951C1419.32 60.7583 1463.77 68.1849 1509.25 71.4035C1541.98 73.7189 1574.55 77.2929 1607.62 76.409C1622.72 76.0055 1637.67 74.4875 1652.69 73.5268C1696.36 70.7213 1738.43 63.2178 1779.56 52.7744C1805.38 46.222 1830.27 38.1228 1855.63 30.7731C1886.04 21.9725 1916.66 13.4794 1945.35 1.95034C1947.83 1.17315 1950.39 0.521363 1953 0Z" fill="url(#paint0_linear_3_5)" fill-opacity="0.7"/>
<defs>
<linearGradient id="paint0_linear_3_5" x1="961" y1="69" x2="961" y2="3180" gradientUnits="userSpaceOnUse">
<stop offset="0.03125" stop-color="#4E9CC0"/>
<stop offset="0.54" stop-color="#41B9DC"/>
<stop offset="0.805" stop-color="#3BA3D6" stop-opacity="0.4"/>
<stop offset="1" stop-color="#3BA3D6" stop-opacity="0"/>
</linearGradient>
</defs>
</svg>
