<svg width="1920" height="952" viewBox="0 0 1920 952" fill="none" xmlns="http://www.w3.org/2000/svg">
<path d="M1948 10.7286L1948 952H-24L-24 257.857C-17.7859 257.108 -12.9544 254.782 -7.69849 252.992C34.171 238.688 79.4761 232.6 127.888 234.437C177.258 236.306 225.397 242.055 272.481 250.736C316.787 258.898 360.08 268.644 403.619 278.099C459.737 290.305 516.43 301.069 576.955 303.332C608.983 304.539 640.437 303.75 671.097 297.615C694.385 293.014 717.178 287.619 739.355 281.458C820.795 258.59 896.486 230.376 969.959 200.049C1026.08 176.874 1080.06 152.011 1134.62 127.606C1189.18 103.201 1246.17 80.6721 1308.09 62.6855C1376.54 42.7923 1448.57 27.2837 1522.89 16.4376C1600.11 5.15363 1678.59 -0.784067 1758.4 0.0833273C1805.6 0.595878 1852.59 3.00092 1899.38 6.39165C1915.66 7.62965 1932.05 8.33145 1948 10.7286Z" fill="#4CA1C5" fill-opacity="0.5"/>
</svg>
