<svg width="1920" height="139" viewBox="0 0 1920 139" fill="none" xmlns="http://www.w3.org/2000/svg">
<path d="M-19.9999 0L-20 139H1940C1940 137.608 1940 136.217 1940 134.826L1940 114.162C1940 112.848 1939.92 111.533 1939.82 110.221C1939.83 109.716 1939.3 109.218 1938.26 108.771C1937.23 108.324 1935.73 107.941 1933.9 107.656C1917.19 104.847 1899.85 102.257 1880.87 100.299C1857.26 97.8641 1832.63 96.0573 1807.94 94.3186C1760.81 90.9486 1711.74 89.1764 1662.32 89.059C1622.16 88.9884 1582.12 88.0561 1542.73 86.2746C1526.69 85.5432 1511.22 84.2644 1496.86 82.4816C1460.31 77.9738 1425.79 72.736 1392.1 67.2228C1324.46 56.1499 1256.64 45.139 1186.12 35.0191C1143.51 28.9026 1099.68 23.2873 1053.39 18.7053C992.609 12.6878 929.025 9.8291 862.855 9.73319C851.96 9.73319 841.148 10.1137 830.267 10.1354C791.754 10.2158 753.65 11.3729 715.41 12.2516C661.169 13.4891 607.827 15.9642 554.076 17.9349C509.422 19.5654 465.326 21.9569 420.208 22.9934C387.743 23.739 355.427 24.8899 322.621 24.6052C307.641 24.4753 292.811 23.9865 277.912 23.6771C234.593 22.7737 192.853 20.3574 152.053 16.9944C126.437 14.8844 101.747 12.2763 76.5944 9.90954C46.4301 7.07559 16.048 4.34065 -12.4141 0.628048C-14.8732 0.377777 -17.4086 0.167889 -19.9999 0Z" fill="white"/>
</svg>
