<svg width="1920" height="1635" viewBox="0 0 1920 1635" fill="none" xmlns="http://www.w3.org/2000/svg">
<path d="M-17.8279 1635H1943V152.318C1899.48 139.916 1854.6 129.999 1808.8 122.663C1768.2 116.259 1727.2 111.477 1685.74 109.769C1648.41 108.232 1610.93 108.509 1573.68 112.326C1521.58 117.671 1470.79 126.271 1422.24 140.779C1386.2 151.545 1351.27 163.877 1316.79 176.886C1300.32 183.1 1283.57 188.96 1266.45 194.295C1235.6 203.84 1203.41 210.951 1171.97 219.426C1123.84 232.561 1071.74 236.915 1020.55 232.082C950.207 225.71 881.791 211.436 817.934 189.809C754.991 168.563 695.454 143.041 634.01 119.876C592.893 104.414 551.231 89.849 508.111 77.3074C445.087 58.9913 379.869 45.3616 315.114 30.7107C282.417 23.3136 249.406 16.4606 215.837 11.2302C169.61 4.03355 123.125 -1.72186 75.3463 0.473401C45.3737 1.85737 17.4855 8.78676 -10.5663 15.4012C-12.7317 15.8049 -14.6323 16.7192 -15.9476 17.9902C-17.2629 19.2611 -17.9125 20.8109 -17.787 22.3783C-17.787 25.4802 -17.9232 28.5727 -17.9232 31.6747C-17.9232 614.334 -17.9232 1042.33 -17.9232 1624.99C-17.9232 1628.33 -17.8551 1631.64 -17.8279 1635Z" fill="#44B3D6" fill-opacity="0.6"/>
</svg>
