<svg width="1920" height="2382" viewBox="0 0 1920 2382" fill="none" xmlns="http://www.w3.org/2000/svg">
<path d="M-40 0V2378.69L1943 2382C1943 2379.84 1943 1154.41 1943 1152.25L1935.77 177.442C1935.77 175.398 1935.69 173.355 1935.59 171.316C1935.6 170.531 1935.06 169.758 1934.02 169.063C1932.98 168.368 1931.47 167.773 1929.62 167.329C1912.78 162.963 1895.3 158.938 1876.16 155.894C1852.36 152.11 1827.54 149.301 1802.65 146.599C1755.14 141.361 1705.67 138.606 1655.86 138.424C1615.38 138.314 1575.01 136.865 1535.3 134.096C1519.13 132.959 1503.54 130.972 1489.07 128.201C1452.22 121.194 1417.42 113.053 1383.46 104.484C1315.28 87.2736 1246.91 70.1594 1175.83 54.43C1132.87 44.9232 1088.68 36.1953 1042.02 29.0736C980.756 19.7206 916.661 15.2773 849.958 15.1283C838.976 15.1283 828.076 15.7197 817.108 15.7534C778.286 15.8784 739.875 17.6769 701.327 19.0426C646.65 20.9661 592.878 24.813 538.695 27.8762C493.681 30.4104 449.23 34.1276 403.75 35.7385C371.023 36.8974 338.448 38.6862 305.378 38.2438C290.277 38.0419 275.327 37.2821 260.309 36.8012C216.641 35.3971 174.566 31.6414 133.437 26.4144C107.615 23.1348 82.7266 19.081 57.3713 15.4024C26.9644 10.9976 -3.66211 6.74665 -32.3531 0.976172C-34.832 0.587177 -37.3878 0.26095 -40 0Z" fill="url(#paint0_linear_0_468)" fill-opacity="0.5"/>
<defs>
<linearGradient id="paint0_linear_0_468" x1="406.606" y1="124.041" x2="1062.87" y2="1531.45" gradientUnits="userSpaceOnUse">
<stop offset="0.03125" stop-color="#4E9CC0"/>
<stop offset="0.54452" stop-color="#41B9DC"/>
<stop offset="0.909844" stop-color="#3BA3D6"/>
</linearGradient>
</defs>
</svg>
