<svg width="1939" height="628" viewBox="0 0 1939 628" fill="none" xmlns="http://www.w3.org/2000/svg">
<path d="M1939 0L1939 627.234H0C0 625.391 0 625.84 0 624L0.00217749 151.064C0.00217749 149.325 0.0831949 147.585 0.177501 145.849C0.168918 145.181 0.698244 144.522 1.71977 143.931C2.74129 143.339 4.22375 142.832 6.03773 142.455C22.5682 138.738 39.7187 135.311 58.4991 132.72C81.86 129.498 106.218 127.107 130.643 124.806C177.276 120.347 225.818 118.002 274.702 117.847C314.434 117.753 354.047 116.519 393.015 114.162C408.887 113.194 424.185 111.502 438.39 109.143C474.55 103.178 508.702 96.2473 542.032 88.952C608.949 74.3 676.041 59.7298 745.8 46.3387C787.955 38.2451 831.323 30.8147 877.115 24.7516C937.242 16.789 1000.14 13.0063 1065.61 12.8794C1076.38 12.8794 1087.08 13.3829 1097.84 13.4116C1135.94 13.518 1173.64 15.0491 1211.47 16.2118C1265.13 17.8493 1317.9 21.1245 1371.08 23.7323C1415.25 25.8897 1458.88 29.0543 1503.51 30.4258C1535.63 31.4124 1567.6 32.9353 1600.05 32.5587C1614.87 32.3867 1629.54 31.7399 1644.28 31.3305C1687.14 30.1351 1728.43 26.9378 1768.79 22.4877C1794.13 19.6957 1818.56 16.2445 1843.44 13.1127C1873.28 9.36272 1903.34 5.74372 1931.5 0.831059C1933.93 0.49989 1936.44 0.222158 1939 0Z" fill="white"/>
</svg>
