<svg width="1948" height="4470" viewBox="0 0 1948 4470" fill="none" xmlns="http://www.w3.org/2000/svg">
<path d="M5.79338 0V853.463H1942.15C1942.15 851.873 1942.15 850.283 1942.15 848.695V130.445C1942.15 128.943 1942.07 127.441 1941.97 125.942C1941.98 125.365 1941.45 124.796 1940.43 124.285C1939.41 123.775 1937.93 123.337 1936.12 123.011C1919.61 119.801 1902.49 116.842 1883.73 114.605C1860.4 111.823 1836.08 109.758 1811.69 107.771C1765.12 103.921 1716.64 101.896 1667.82 101.762C1628.15 101.681 1588.59 100.616 1549.67 98.58C1533.82 97.7443 1518.54 96.2831 1504.36 94.246C1468.25 89.0953 1434.14 83.1104 1400.86 76.8108C1334.03 64.1587 1267.03 51.5772 1197.37 40.0139C1155.27 33.025 1111.96 26.6088 1066.23 21.3733C1006.19 14.4975 943.37 11.231 877.997 11.1214C867.234 11.1214 856.552 11.5563 845.802 11.581C807.755 11.6729 770.11 12.9951 732.332 13.999C678.745 15.4131 626.046 18.2412 572.944 20.493C528.828 22.356 485.264 25.0887 440.691 26.2729C408.617 27.1249 376.691 28.4399 344.281 28.1147C329.482 27.9662 314.83 27.4077 300.112 27.0542C257.315 26.0219 216.079 23.261 175.771 19.4183C150.464 17.0074 126.072 14.0273 101.222 11.323C71.4218 8.08479 41.4063 4.95976 13.2876 0.717627C10.8582 0.43166 8.35339 0.191836 5.79338 0Z" fill="url(#paint0_linear_0_668)" fill-opacity="0.8"/>
<path d="M1942.15 48.3418V851.172L5.7915 853.463C5.7915 851.966 5.7915 846.654 5.7915 845.16L12.8511 171.048C12.8511 169.635 12.9317 168.222 13.0256 166.812C13.017 166.269 13.5437 165.734 14.5601 165.254C15.5765 164.773 17.0516 164.362 18.8565 164.055C35.3043 161.036 52.3689 158.252 71.0553 156.147C94.2993 153.53 118.535 151.588 142.838 149.719C189.237 146.097 237.537 144.192 286.176 144.066C325.709 143.99 365.125 142.988 403.898 141.073C419.69 140.287 434.912 138.913 449.046 136.996C485.024 132.151 519.005 126.522 552.169 120.596C618.751 108.694 685.507 96.8591 754.917 85.9818C796.861 79.4075 840.012 73.3719 885.575 68.4471C945.401 61.9792 1007.99 58.9065 1073.12 58.8034C1083.85 58.8034 1094.49 59.2125 1105.2 59.2357C1143.11 59.3222 1180.62 60.5659 1218.26 61.5103C1271.65 62.8405 1324.15 65.5008 1377.06 67.619C1421.02 69.3715 1464.42 71.942 1508.83 73.056C1540.79 73.8575 1572.6 75.0945 1604.89 74.7886C1619.64 74.6489 1634.24 74.1235 1648.9 73.7909C1691.54 72.8199 1732.63 70.2228 1772.79 66.6081C1798 64.3402 1822.31 61.5369 1847.07 58.993C1876.76 55.9469 1906.66 53.0073 1934.68 49.0168C1937.1 48.7478 1939.6 48.5223 1942.15 48.3418Z" fill="url(#paint1_linear_0_668)" fill-opacity="0.7"/>
<path d="M6.76788 177.632V875.108H1937.26V130.173C1883.99 130.069 1832.01 131.756 1781.46 136.311C1734.73 140.522 1691.34 146.776 1653.28 154.783C1616.73 162.426 1579.38 169.834 1539.28 176.265C1505.49 181.679 1469.04 185.669 1429.11 187.376C1399.81 188.629 1370.47 188.578 1341.09 187.713C1301.08 186.521 1261.79 184.534 1223.94 180.979C1160.76 175.023 1100.91 167.315 1042.43 158.938C987.712 151.099 932.012 143.786 874.234 137.466C810.481 130.503 744.717 125.133 676.301 121.907C628.68 119.664 580.738 118.678 532.474 120.223C453.418 122.782 378.235 128.57 306.415 137.2C282.564 140.066 259.853 143.497 236.216 146.466C167.063 155.16 98.4321 164.093 31.4762 173.82C23.1151 175.029 13.8427 175.888 6.76788 177.632Z" fill="url(#paint2_linear_0_668)" fill-opacity="0.8"/>
<path d="M4.09469 875.692H1942.15V224.103C1899.13 214.587 1854.78 206.978 1809.51 201.349C1769.38 196.435 1728.85 192.766 1687.87 191.455C1650.98 190.276 1613.93 190.489 1577.12 193.418C1525.63 197.519 1475.43 204.118 1427.43 215.249C1391.82 223.51 1357.29 232.972 1323.21 242.953C1306.93 247.721 1290.38 252.217 1273.45 256.311C1242.97 263.635 1211.15 269.09 1180.07 275.594C1132.5 285.671 1081 289.013 1030.41 285.304C960.886 280.415 893.265 269.463 830.149 252.869C767.937 236.567 709.092 216.985 648.362 199.211C607.722 187.347 566.544 176.172 523.925 166.549C461.633 152.495 397.172 142.037 333.17 130.796C300.852 125.12 268.225 119.862 235.045 115.849C189.356 110.327 143.411 105.911 96.1867 107.596C66.5622 108.658 38.998 113.974 11.272 119.049C9.13179 119.359 7.25317 120.061 5.95314 121.036C4.65311 122.011 4.01101 123.2 4.13506 124.403C4.13506 126.783 4.00043 129.156 4.00043 131.536C4.00043 578.598 4.00043 420.948 4.00043 868.01C4.00043 870.573 4.06776 873.114 4.09469 875.692Z" fill="#35C4F1" fill-opacity="0.3"/>
<path d="M5.79254 242.177V853.464H1942.15V536.318C1936.05 535.427 1931.3 532.658 1926.14 530.527C1885.03 513.502 1840.54 506.257 1793 508.443C1744.53 510.668 1697.26 517.51 1651.03 527.843C1607.52 537.557 1565.01 549.158 1522.26 560.411C1467.15 574.94 1411.49 587.751 1352.05 590.445C1320.61 591.881 1289.72 590.942 1259.62 583.64C1236.75 578.163 1214.37 571.742 1192.59 564.409C1112.62 537.191 1038.3 503.61 966.155 467.513C911.051 439.929 858.044 410.337 804.473 381.289C750.901 352.241 694.937 325.426 634.135 304.018C566.924 280.34 496.197 261.881 423.223 248.972C347.395 235.541 270.33 228.474 191.962 229.506C145.621 230.116 99.4822 232.979 53.5311 237.015C37.5511 238.488 21.45 239.324 5.79254 242.177Z" fill="#0976A5" fill-opacity="0.48"/>
<path d="M1941.93 440.355V3271.46H4C4 3267.56 4 3263.67 4 3259.77V760.095C4 756.412 4.08096 752.729 4.17521 749.055C4.16664 747.641 4.69568 746.247 5.71663 744.995C6.73759 743.743 8.21924 742.671 10.0322 741.872C26.5536 734.004 43.6945 726.752 62.4645 721.267C85.8125 714.447 110.157 709.387 134.568 704.517C181.175 695.079 229.691 690.115 278.548 689.787C318.258 689.589 357.849 686.978 396.796 681.988C412.659 679.94 427.948 676.358 442.146 671.365C478.285 658.74 512.418 644.07 545.73 628.629C612.61 597.617 679.665 566.778 749.385 538.435C791.517 521.304 834.86 505.577 880.627 492.744C940.721 475.891 1003.59 467.884 1069.01 467.616C1079.79 467.616 1090.48 468.681 1101.23 468.742C1139.31 468.967 1176.99 472.208 1214.8 474.669C1268.43 478.135 1321.17 485.067 1374.32 490.587C1418.47 495.153 1462.07 501.851 1506.67 504.754C1538.77 506.842 1570.73 510.066 1603.16 509.268C1617.97 508.904 1632.64 507.535 1647.37 506.669C1690.2 504.139 1731.47 497.371 1771.81 487.952C1797.14 482.043 1821.55 474.738 1846.42 468.11C1876.24 460.172 1906.28 452.512 1934.42 442.114C1936.86 441.414 1939.36 440.826 1941.93 440.355Z" fill="url(#paint3_linear_0_668)"/>
<path d="M6.7674 440.355V3229.61L1948 3235.43C1948 3231.63 1948 3218.14 1948 3214.34L1940.92 751.961C1940.92 748.372 1940.84 744.783 1940.75 741.203C1940.76 739.825 1940.23 738.467 1939.21 737.246C1938.19 736.026 1936.71 734.981 1934.9 734.202C1918.41 726.535 1901.31 719.467 1882.57 714.121C1859.27 707.475 1834.97 702.544 1810.61 697.798C1764.09 688.599 1715.67 683.762 1666.91 683.442C1627.28 683.249 1587.76 680.704 1548.89 675.842C1533.06 673.845 1517.8 670.355 1503.63 665.489C1467.56 653.185 1433.49 638.888 1400.25 623.84C1333.5 593.617 1266.57 563.562 1196.99 535.94C1154.94 519.245 1111.68 503.918 1066 491.412C1006.02 474.987 943.279 467.184 877.98 466.922C867.23 466.922 856.56 467.961 845.822 468.02C807.818 468.24 770.216 471.398 732.48 473.796C678.954 477.174 626.315 483.93 573.273 489.309C529.208 493.759 485.693 500.287 441.171 503.116C409.133 505.151 377.244 508.292 344.87 507.515C330.088 507.161 315.453 505.826 300.751 504.982C258.003 502.516 216.814 495.921 176.551 486.742C151.273 480.982 126.909 473.864 102.088 467.404C72.3213 459.668 42.3399 452.203 14.2532 442.07C11.8265 441.387 9.3245 440.814 6.7674 440.355Z" fill="url(#paint4_linear_0_668)" fill-opacity="0.7"/>
<path d="M1.88009 1309.68V2461.74H1943.19V1231.29C1889.61 1231.12 1837.34 1233.91 1786.51 1241.43C1739.52 1248.39 1695.88 1258.72 1657.61 1271.94C1620.85 1284.57 1583.3 1296.8 1542.97 1307.43C1508.99 1316.37 1472.34 1322.96 1432.19 1325.78C1402.72 1327.85 1373.22 1327.76 1343.67 1326.34C1303.44 1324.37 1263.93 1321.09 1225.87 1315.21C1162.34 1305.37 1102.15 1292.64 1043.35 1278.81C988.318 1265.86 932.305 1253.78 874.204 1243.34C810.094 1231.84 743.962 1222.97 675.162 1217.64C627.275 1213.94 579.064 1212.31 530.53 1214.86C451.031 1219.09 375.427 1228.65 303.205 1242.9C279.221 1247.63 256.382 1253.3 232.614 1258.21C163.073 1272.57 94.0577 1287.32 26.7268 1303.39C18.3188 1305.39 8.9945 1306.8 1.88009 1309.68Z" fill="url(#paint5_linear_0_668)"/>
<path d="M1943.18 1526.3V2461.74H1.87988V1462.65C55.4536 1462.51 107.72 1464.77 158.559 1470.88C205.544 1476.53 249.181 1484.92 287.453 1495.66C324.211 1505.91 361.764 1515.84 402.093 1524.47C436.075 1531.73 472.725 1537.08 512.878 1539.37C542.346 1541.05 571.841 1540.98 601.39 1539.82C641.624 1538.22 681.131 1535.56 719.196 1530.79C782.727 1522.8 842.917 1512.47 901.718 1501.23C956.747 1490.72 1012.76 1480.91 1070.86 1472.43C1134.97 1463.09 1201.1 1455.89 1269.9 1451.56C1317.79 1448.56 1366 1447.23 1414.54 1449.31C1494.03 1452.74 1569.64 1460.5 1641.86 1472.08C1665.84 1475.92 1688.68 1480.52 1712.45 1484.5C1781.99 1496.16 1851.01 1508.14 1918.34 1521.19C1926.75 1522.81 1936.07 1523.96 1943.18 1526.3Z" fill="url(#paint6_linear_0_668)" fill-opacity="0.3"/>
<path d="M1941.99 4469.74H0.688721L0.688721 2349.02C43.7738 2338.92 88.205 2330.84 133.548 2324.87C173.744 2319.65 214.343 2315.76 255.388 2314.37C292.346 2313.12 329.452 2313.34 366.329 2316.45C417.909 2320.8 468.193 2327.81 516.265 2339.62C551.942 2348.39 586.526 2358.43 620.665 2369.03C636.972 2374.09 653.549 2378.86 670.504 2383.2C701.041 2390.98 732.914 2396.77 764.045 2403.67C811.694 2414.37 863.276 2417.91 913.954 2413.98C983.596 2408.79 1051.33 2397.16 1114.55 2379.55C1176.87 2362.25 1235.81 2341.46 1296.64 2322.6C1337.35 2310.01 1378.6 2298.15 1421.29 2287.93C1483.69 2273.02 1548.25 2261.92 1612.36 2249.99C1644.74 2243.96 1677.42 2238.38 1710.65 2234.12C1756.42 2228.26 1802.44 2223.57 1849.75 2225.36C1879.42 2226.49 1907.03 2232.13 1934.8 2237.52C1936.95 2237.85 1938.83 2238.59 1940.13 2239.63C1941.43 2240.66 1942.08 2241.92 1941.95 2243.2C1941.95 2245.73 1942.09 2248.25 1942.09 2250.77C1942.09 2725.27 1942.09 3987.09 1942.09 4461.59C1942.09 4464.31 1942.02 4467 1941.99 4469.74Z" fill="url(#paint7_linear_0_668)"/>
<path d="M0.781241 4469.69H1942.08L1942.08 2703C1899 2688.78 1854.57 2677.4 1809.22 2668.99C1769.03 2661.64 1728.43 2656.16 1687.39 2654.2C1650.43 2652.44 1613.32 2652.75 1576.44 2657.13C1524.86 2663.26 1474.58 2673.13 1426.51 2689.77C1390.83 2702.12 1356.25 2716.26 1322.11 2731.18C1305.8 2738.31 1289.22 2745.03 1272.27 2751.15C1241.73 2762.1 1209.86 2770.25 1178.73 2779.97C1131.08 2795.04 1079.5 2800.03 1028.82 2794.49C959.177 2787.18 891.443 2770.81 828.221 2746C765.905 2721.64 706.961 2692.36 646.129 2665.79C605.421 2648.06 564.174 2631.35 521.484 2616.97C459.087 2595.96 394.518 2580.33 330.408 2563.52C298.036 2555.04 265.354 2547.18 232.119 2541.18C186.353 2532.93 140.331 2526.32 93.0278 2528.84C63.3536 2530.43 35.7431 2538.38 7.97068 2545.96C5.82682 2546.43 3.94506 2547.48 2.64285 2548.93C1.34064 2550.39 0.697554 2552.17 0.821814 2553.97C0.821814 2557.52 0.687018 2561.07 0.687018 2564.63C0.687018 3232.92 0.687018 3789.92 0.687018 4458.21C0.687018 4462.04 0.754264 4465.84 0.781241 4469.69Z" fill="url(#paint8_linear_0_668)" fill-opacity="0.5"/>
<path d="M0.000185966 3435.3V4468.64H1942.19C1942.19 4464.5 1942.19 4114.08 1942.19 4109.94L1942.19 3775.16C1942.19 3771.25 1942.1 3767.33 1942.01 3763.43C1942.02 3761.92 1941.49 3760.44 1940.46 3759.11C1939.44 3757.78 1937.96 3756.64 1936.14 3755.79C1919.58 3747.43 1902.4 3739.72 1883.59 3733.89C1860.19 3726.64 1835.8 3721.26 1811.33 3716.09C1764.62 3706.05 1716 3700.78 1667.03 3700.43C1627.24 3700.22 1587.56 3697.44 1548.53 3692.14C1532.63 3689.96 1517.3 3686.16 1503.08 3680.85C1466.86 3667.43 1432.65 3651.84 1399.26 3635.42C1332.24 3602.46 1265.04 3569.68 1195.16 3539.55C1152.94 3521.34 1109.5 3504.63 1063.63 3490.99C1003.41 3473.07 940.4 3464.56 874.83 3464.28C864.035 3464.28 853.32 3465.41 842.538 3465.48C804.376 3465.71 766.618 3469.16 728.726 3471.77C674.978 3475.46 622.12 3482.83 568.858 3488.69C524.61 3493.55 480.914 3500.67 436.207 3503.75C404.037 3505.97 372.015 3509.4 339.507 3508.55C324.663 3508.16 309.967 3506.71 295.204 3505.79C252.279 3503.1 210.918 3495.91 170.489 3485.89C145.106 3479.61 120.641 3471.85 95.7164 3464.8C65.8262 3456.37 35.7204 3448.22 7.51702 3437.17C5.08026 3436.43 2.56791 3435.8 0.000185966 3435.3Z" fill="url(#paint9_linear_0_668)" fill-opacity="0.4"/>
<path d="M1942.19 4287.26V4469.74H4.00049C10.0335 4394.49 4.00049 4468.16 4.00049 4469.74L4.00049 4417.09C4.00049 4415.6 4.08146 4414.1 4.17573 4412.61C4.16715 4412.03 4.69626 4411.47 5.71735 4410.96C6.73845 4410.45 8.2203 4410.02 10.0335 4409.69C26.5571 4406.5 43.7003 4403.55 62.4728 4401.32C85.8239 4398.56 110.171 4396.5 134.586 4394.52C181.199 4390.69 229.721 4388.68 278.585 4388.54C318.3 4388.46 357.897 4387.4 396.849 4385.38C412.714 4384.54 428.006 4383.09 442.205 4381.06C478.349 4375.93 512.487 4369.98 545.803 4363.71C612.692 4351.11 679.756 4338.59 749.486 4327.08C791.623 4320.13 834.972 4313.74 880.745 4308.53C940.847 4301.69 1003.72 4298.44 1069.16 4298.33C1079.93 4298.33 1090.62 4298.76 1101.38 4298.78C1139.47 4298.88 1177.15 4300.19 1214.96 4301.19C1268.6 4302.6 1321.35 4305.41 1374.5 4307.65C1418.66 4309.51 1462.26 4312.23 1506.88 4313.41C1538.98 4314.25 1570.94 4315.56 1603.38 4315.24C1618.19 4315.09 1632.86 4314.54 1647.59 4314.18C1690.43 4313.16 1731.7 4310.41 1772.05 4306.58C1797.38 4304.18 1821.79 4301.22 1846.67 4298.53C1876.49 4295.3 1906.54 4292.19 1934.68 4287.97C1937.12 4287.69 1939.62 4287.45 1942.19 4287.26Z" fill="url(#paint10_linear_0_668)" fill-opacity="0.4"/>
<path d="M4.09465 4469.74H1942.19L1942.19 4160.58C1899.17 4146.55 1854.81 4135.33 1809.55 4127.03C1769.42 4119.78 1728.88 4114.37 1687.91 4112.44C1651.01 4110.7 1613.97 4111.01 1577.15 4115.33C1525.66 4121.38 1475.45 4131.11 1427.46 4147.52C1391.84 4159.7 1357.32 4173.65 1323.24 4188.37C1306.95 4195.4 1290.41 4202.03 1273.48 4208.07C1242.99 4218.87 1211.17 4226.91 1180.09 4236.5C1132.52 4251.36 1081.02 4256.29 1030.43 4250.82C960.904 4243.61 893.282 4227.46 830.165 4202.99C767.952 4178.96 709.106 4150.08 648.374 4123.87C607.734 4106.38 566.555 4089.9 523.935 4075.71C461.642 4054.99 397.18 4039.57 333.176 4022.99C300.858 4014.62 268.23 4006.87 235.049 4000.95C189.359 3992.81 143.414 3986.3 96.1884 3988.78C66.5633 3990.35 38.9985 3998.19 11.2721 4005.67C9.13179 4006.13 7.2532 4007.16 5.95315 4008.6C4.65309 4010.04 4.01101 4011.79 4.13507 4013.57C4.13507 4017.08 4.0005 4020.57 4.0005 4024.08C4.0005 4683.29 4.09465 3810.54 4.09465 4469.74C4.06772 4465.94 5.95315 4008.6 4.09465 4469.74Z" fill="url(#paint11_linear_0_668)" fill-opacity="0.5"/>
<path d="M4.0004 4079.49V4469.74H1942.19C1942.19 4466.15 1942.19 4162.44 1942.19 4158.86V4374.05C1942.19 4370.65 1942.1 4367.26 1942.01 4363.88C1942.02 4362.57 1941.49 4361.29 1940.47 4360.14C1939.45 4358.98 1937.97 4357.99 1936.15 4357.26C1919.63 4350.01 1902.49 4343.33 1883.71 4338.28C1860.36 4331.99 1836.01 4327.33 1811.6 4322.85C1764.99 4314.15 1716.46 4309.58 1667.6 4309.28C1627.89 4309.09 1588.29 4306.69 1549.34 4302.09C1533.47 4300.2 1518.18 4296.9 1503.98 4292.3C1467.84 4280.67 1433.7 4267.16 1400.38 4252.93C1333.49 4224.36 1266.43 4195.95 1196.7 4169.84C1154.56 4154.06 1111.21 4139.57 1065.44 4127.75C1005.34 4112.23 942.463 4104.85 877.028 4104.6C866.255 4104.6 855.563 4105.58 844.803 4105.64C806.72 4105.85 769.039 4108.83 731.225 4111.1C677.588 4114.29 624.839 4120.68 571.686 4125.76C527.529 4129.97 483.924 4136.14 439.309 4138.82C407.205 4140.74 375.249 4143.71 342.808 4142.97C327.994 4142.64 313.329 4141.38 298.597 4140.58C255.759 4138.25 214.484 4132.01 174.138 4123.34C148.807 4117.89 124.392 4111.16 99.5194 4105.06C69.6908 4097.75 39.6469 4090.69 11.5017 4081.11C9.06994 4080.46 6.56283 4079.92 4.0004 4079.49Z" fill="url(#paint12_linear_0_668)" fill-opacity="0.8"/>
<g opacity="0.9">
<path d="M4.12144 4470H1942.19L1942.16 4287.59C1899.15 4282.91 1854.79 4279.17 1809.52 4276.4C1769.39 4273.98 1728.86 4272.18 1687.88 4271.53C1650.99 4270.95 1613.94 4271.06 1577.13 4272.5C1525.64 4274.51 1475.43 4277.76 1427.44 4283.24C1391.83 4287.3 1357.3 4291.96 1323.22 4296.87C1306.94 4299.21 1290.39 4301.43 1273.46 4303.44C1242.97 4307.04 1211.15 4309.73 1180.08 4312.93C1132.51 4317.89 1081.01 4319.53 1030.42 4317.7C960.891 4315.3 893.27 4309.91 830.154 4301.75C767.942 4293.73 709.096 4284.09 648.365 4275.35C607.726 4269.51 566.547 4264.01 523.928 4259.28C461.635 4252.36 397.175 4247.22 333.172 4241.69C300.854 4238.89 268.226 4236.31 235.046 4234.33C189.357 4231.62 143.412 4229.44 96.1873 4230.27C66.5625 4230.79 38.9981 4233.41 11.272 4235.91C9.13174 4236.06 7.2532 4236.41 5.95316 4236.89C4.65313 4237.36 4.01117 4237.95 4.13523 4238.54C4.13523 4239.71 4.00052 4240.88 4.00052 4242.05C4.00052 4462 4.02724 4246.27 4.02724 4466.22C4.02724 4467.48 4.09451 4468.73 4.12144 4470Z" fill="url(#paint13_linear_0_668)" fill-opacity="0.7"/>
</g>
<defs>
<linearGradient id="paint0_linear_0_668" x1="1286.11" y1="4.02904e-05" x2="453.659" y2="678.846" gradientUnits="userSpaceOnUse">
<stop stop-color="#82C3CC"/>
<stop offset="1" stop-color="#C8EFF4"/>
</linearGradient>
<linearGradient id="paint1_linear_0_668" x1="1506.05" y1="134.12" x2="1153.24" y2="1202.5" gradientUnits="userSpaceOnUse">
<stop offset="0.03125" stop-color="#4E9CC0"/>
<stop offset="0.54452" stop-color="#41B9DC"/>
<stop offset="0.909844" stop-color="#3BA3D6"/>
</linearGradient>
<linearGradient id="paint2_linear_0_668" x1="1814.43" y1="-140.143" x2="1250.71" y2="1132.1" gradientUnits="userSpaceOnUse">
<stop stop-color="#33B0DD"/>
<stop offset="1" stop-color="#207898"/>
</linearGradient>
<linearGradient id="paint3_linear_0_668" x1="260.981" y1="1420.83" x2="391.798" y2="711.32" gradientUnits="userSpaceOnUse">
<stop offset="0.0187254" stop-color="#1F90BA"/>
<stop offset="1" stop-color="#C8EFF4"/>
</linearGradient>
<linearGradient id="paint4_linear_0_668" x1="443.967" y1="658.183" x2="1924.76" y2="2428.48" gradientUnits="userSpaceOnUse">
<stop offset="0.03125" stop-color="#4E9CC0"/>
<stop offset="0.54452" stop-color="#41B9DC"/>
<stop offset="0.909844" stop-color="#3BA3D6"/>
</linearGradient>
<linearGradient id="paint5_linear_0_668" x1="1819.66" y1="784.801" x2="623.548" y2="2428.27" gradientUnits="userSpaceOnUse">
<stop stop-color="#90D3EB"/>
<stop offset="1" stop-color="#207898"/>
</linearGradient>
<linearGradient id="paint6_linear_0_668" x1="125.405" y1="1100.11" x2="1019.48" y2="2613.05" gradientUnits="userSpaceOnUse">
<stop stop-color="#90D3EB"/>
<stop offset="1" stop-color="#207898"/>
</linearGradient>
<linearGradient id="paint7_linear_0_668" x1="971.387" y1="2224.98" x2="971.387" y2="3040.6" gradientUnits="userSpaceOnUse">
<stop stop-color="#0085B0"/>
<stop offset="1" stop-color="#005167"/>
</linearGradient>
<linearGradient id="paint8_linear_0_668" x1="971.386" y1="2528.3" x2="971.386" y2="3677.03" gradientUnits="userSpaceOnUse">
<stop stop-color="#0085B0"/>
<stop offset="1" stop-color="#005167"/>
</linearGradient>
<linearGradient id="paint9_linear_0_668" x1="971.093" y1="3435.3" x2="971.093" y2="4122.37" gradientUnits="userSpaceOnUse">
<stop stop-color="#002B3E"/>
<stop offset="1" stop-color="#1685B1"/>
</linearGradient>
<linearGradient id="paint10_linear_0_668" x1="973.093" y1="4287.26" x2="973.093" y2="4549.73" gradientUnits="userSpaceOnUse">
<stop stop-color="#082F3C"/>
<stop offset="1" stop-color="#002B3E"/>
</linearGradient>
<linearGradient id="paint11_linear_0_668" x1="973.093" y1="3988.25" x2="973.093" y2="5121.36" gradientUnits="userSpaceOnUse">
<stop stop-color="#0B5269"/>
<stop offset="1" stop-color="#005167"/>
</linearGradient>
<linearGradient id="paint12_linear_0_668" x1="973.093" y1="4400.05" x2="973.093" y2="4995.53" gradientUnits="userSpaceOnUse">
<stop stop-color="#003E52"/>
<stop offset="1" stop-color="#002B3E"/>
</linearGradient>
<linearGradient id="paint13_linear_0_668" x1="973.079" y1="4230.09" x2="973.079" y2="4608.17" gradientUnits="userSpaceOnUse">
<stop stop-color="#152428"/>
<stop offset="1" stop-color="#005167"/>
</linearGradient>
</defs>
</svg>
