<svg width="1920" height="681" viewBox="0 0 1920 681" fill="none" xmlns="http://www.w3.org/2000/svg">
<path d="M1956.86 155.685V680.302H-36.96V28.7062C18.0629 28.4269 71.7434 32.9404 123.957 45.1292C172.214 56.3958 217.03 73.1273 256.338 94.5513C294.09 115.001 332.659 134.821 374.079 152.027C408.98 166.513 446.621 177.189 487.861 181.756C518.126 185.108 548.419 184.972 578.767 182.657C620.09 179.468 660.665 174.153 699.76 164.64C765.009 148.703 826.827 128.082 887.219 105.668C943.737 84.6957 1001.26 65.1287 1060.94 48.2193C1126.78 29.5891 1194.7 15.2201 1265.36 6.5897C1314.55 0.58986 1364.06 -2.04971 1413.91 2.08532C1495.56 8.93198 1573.21 24.418 1647.38 47.5075C1672.01 55.174 1695.47 64.3539 1719.88 72.2997C1791.3 95.5603 1862.19 119.461 1931.34 145.487C1939.97 148.721 1949.55 151.018 1956.86 155.685Z" fill="#47ACD0" fill-opacity="0.3"/>
</svg>
