<svg width="1919" height="438" viewBox="0 0 1919 438" fill="none" xmlns="http://www.w3.org/2000/svg">
<path d="M1965.9 438H0L0 156.762C43.631 143.999 88.6254 133.792 134.543 126.242C175.248 119.651 216.362 114.73 257.927 112.971C295.353 111.39 332.93 111.675 370.274 115.604C422.507 121.105 473.429 129.955 522.11 144.886C558.239 155.967 593.261 168.658 627.833 182.047C644.347 188.442 661.134 194.473 678.304 199.964C709.228 209.787 741.505 217.106 773.03 225.829C821.283 239.346 873.519 243.828 924.839 238.854C995.363 232.296 1063.96 217.605 1127.98 195.347C1191.08 173.481 1250.78 147.214 1312.38 123.374C1353.6 107.46 1395.37 92.4704 1438.6 79.5629C1501.79 60.7125 1567.18 46.6851 1632.1 31.6067C1664.88 23.9938 1697.98 16.9408 1731.64 11.5578C1777.98 4.1512 1824.59 -1.77213 1872.49 0.487179C1902.54 1.91152 1930.5 9.0431 1958.62 15.8505C1960.8 16.266 1962.7 17.207 1964.02 18.515C1965.34 19.8231 1965.99 21.4181 1965.86 23.0312C1965.86 26.2237 1966 29.4063 1966 32.5988C1966 632.258 1965.9 -161.659 1965.9 438C1965.93 434.542 1964.02 18.5154 1965.9 438Z" fill="url(#paint0_linear_0_115)" fill-opacity="0.5"/>
<defs>
<linearGradient id="paint0_linear_0_115" x1="983" y1="0.000534231" x2="983" y2="1030.76" gradientUnits="userSpaceOnUse">
<stop stop-color="#0B5269"/>
<stop offset="1" stop-color="#005167"/>
</linearGradient>
</defs>
</svg>
