<svg width="1920" height="916" viewBox="0 0 1920 916" fill="none" xmlns="http://www.w3.org/2000/svg">
<path d="M-38 0V913.394L1957 916C1957 914.298 1957 908.253 1957 906.553L1949.73 139.605C1949.73 137.997 1949.64 136.39 1949.55 134.785C1949.56 134.168 1949.01 133.559 1947.97 133.013C1946.92 132.466 1945.4 131.998 1943.54 131.649C1926.59 128.214 1909.01 125.047 1889.76 122.652C1865.81 119.675 1840.84 117.465 1815.8 115.339C1768 111.218 1718.24 109.051 1668.12 108.907C1627.39 108.821 1586.78 107.681 1546.84 105.502C1530.57 104.608 1514.88 103.044 1500.32 100.864C1463.25 95.3516 1428.24 88.9464 1394.07 82.2045C1325.48 68.6639 1256.7 55.199 1185.19 42.8237C1141.97 35.344 1097.51 28.4772 1050.57 22.8741C988.933 15.5155 924.45 12.0197 857.343 11.9024C846.295 11.9024 835.329 12.3678 824.295 12.3942C785.237 12.4926 746.594 13.9076 707.813 14.982C652.805 16.4954 598.708 19.5221 544.197 21.9321C498.911 23.9259 454.191 26.8504 408.436 28.1178C375.511 29.0296 342.738 30.437 309.468 30.0889C294.276 29.93 279.236 29.3323 264.126 28.9539C220.194 27.8492 177.864 24.8944 136.487 20.7819C110.508 18.2017 85.4692 15.0123 59.9606 12.1181C29.3695 8.65251 -1.44231 5.30803 -30.307 0.768019C-32.8009 0.461971 -35.3721 0.205306 -38 0Z" fill="url(#paint0_linear_0_64)" fill-opacity="0.7"/>
<defs>
<linearGradient id="paint0_linear_0_64" x1="411.309" y1="97.5911" x2="845.19" y2="1287.44" gradientUnits="userSpaceOnUse">
<stop offset="0.03125" stop-color="#4E9CC0"/>
<stop offset="0.54452" stop-color="#41B9DC"/>
<stop offset="0.909844" stop-color="#3BA3D6"/>
</linearGradient>
</defs>
</svg>
