<svg width="1920" height="875" viewBox="0 0 1920 875" fill="none" xmlns="http://www.w3.org/2000/svg">
<path d="M1956.74 875H-35V133.676C9.20446 122.85 54.7901 114.193 101.312 107.789C142.551 102.198 184.206 98.0239 226.317 96.5325C264.235 95.191 302.306 95.4326 340.141 98.7654C393.06 103.431 444.651 110.938 493.972 123.603C530.576 133.001 566.058 143.766 601.084 155.123C617.815 160.547 634.823 165.662 652.218 170.32C683.549 178.652 716.25 184.859 748.19 192.258C797.077 203.723 849.999 207.525 901.994 203.306C973.445 197.743 1042.94 185.283 1107.8 166.404C1171.74 147.857 1232.21 125.577 1294.63 105.356C1336.39 91.8582 1378.71 79.1437 1422.51 68.1956C1486.53 52.2067 1552.77 40.3087 1618.55 27.5192C1651.76 21.0619 1685.29 15.0797 1719.39 10.5138C1766.35 4.2315 1813.57 -0.792667 1862.1 1.12367C1892.54 2.3318 1920.87 8.38079 1949.37 14.1548C1951.57 14.5072 1953.5 15.3054 1954.83 16.4149C1956.17 17.5243 1956.83 18.8772 1956.7 20.2454C1956.7 22.9533 1956.84 25.6528 1956.84 28.3607C1956.84 536.991 1956.84 357.63 1956.84 866.26C1956.84 869.176 1956.77 872.067 1956.74 875Z" fill="#35C4F1" fill-opacity="0.3"/>
</svg>
