<svg width="1920" height="971" viewBox="0 0 1920 971" fill="none" xmlns="http://www.w3.org/2000/svg">
<path d="M1957 0V971H-38C-38 969.19 -38 967.382 -38 965.574V148.41C-38 146.701 -37.9167 144.991 -37.8196 143.286C-37.8285 142.63 -37.2838 141.983 -36.2328 141.402C-35.1818 140.82 -33.6565 140.323 -31.7901 139.952C-14.7822 136.3 2.86359 132.934 22.1864 130.388C46.222 127.222 71.2831 124.874 96.4138 122.613C144.393 118.232 194.337 115.928 244.634 115.776C285.513 115.684 326.271 114.472 366.364 112.156C382.694 111.205 398.434 109.543 413.05 107.225C450.254 101.365 485.392 94.5561 519.685 87.389C588.534 72.9944 657.564 58.6803 729.338 45.5245C772.71 37.5731 817.331 30.2732 864.445 24.3167C926.309 16.494 991.028 12.7777 1058.38 12.6531C1069.47 12.6531 1080.47 13.1478 1091.55 13.1759C1130.75 13.2805 1169.53 14.7847 1208.46 15.9269C1263.67 17.5357 1317.96 20.7533 1372.67 23.3153C1418.12 25.4348 1463.01 28.5438 1508.93 29.8912C1541.98 30.8604 1574.87 32.3566 1608.26 31.9866C1623.51 31.8177 1638.6 31.1822 1653.77 30.78C1697.86 29.6056 1740.35 26.4645 1781.87 22.0926C1807.95 19.3496 1833.08 15.9591 1858.68 12.8823C1889.38 9.19821 1920.31 5.6428 1949.28 0.816457C1951.78 0.491107 1954.36 0.218255 1957 0Z" fill="url(#paint0_linear_0_60)" fill-opacity="0.8"/>
<defs>
<linearGradient id="paint0_linear_0_60" x1="637.91" y1="4.58391e-05" x2="1561.98" y2="682.406" gradientUnits="userSpaceOnUse">
<stop stop-color="#82C3CC"/>
<stop offset="1" stop-color="#C8EFF4"/>
</linearGradient>
</defs>
</svg>
