<svg width="1919" height="355" viewBox="0 0 1919 355" fill="none" xmlns="http://www.w3.org/2000/svg">
<path d="M1920 0V355H0C0 351.732 0 75.461 0 72.1981V267.949C0 264.863 0.080211 261.777 0.173593 258.698C0.165094 257.513 0.689241 256.345 1.70076 255.296C2.71227 254.246 4.18022 253.348 5.97642 252.678C22.3449 246.085 39.3274 240.007 57.9237 235.41C81.0558 229.696 105.175 225.455 129.361 221.374C175.536 213.464 223.603 209.305 272.009 209.029C311.351 208.864 350.576 206.675 389.163 202.494C404.879 200.777 420.027 197.776 434.093 193.591C469.898 183.011 503.715 170.718 536.719 157.778C602.98 131.789 669.415 105.945 738.491 82.1929C780.233 67.8369 823.175 54.6573 868.519 43.903C928.057 29.7794 990.343 23.0698 1055.16 22.8447C1065.84 22.8447 1076.43 23.7378 1087.09 23.7887C1124.81 23.9775 1162.14 26.6933 1199.6 28.7555C1252.73 31.6601 1304.99 37.4693 1357.64 42.0949C1401.38 45.9217 1444.58 51.5348 1488.78 53.9674C1520.58 55.7175 1552.23 58.4187 1584.37 57.7507C1599.05 57.4457 1613.57 56.2984 1628.17 55.5722C1670.6 53.4519 1711.49 47.7806 1751.46 39.8874C1776.55 34.9351 1800.74 28.8136 1825.38 23.2586C1854.93 16.607 1884.69 10.1879 1912.57 1.47408C1914.98 0.886676 1917.46 0.394051 1920 0Z" fill="url(#paint0_linear_0_156)" fill-opacity="0.8"/>
<defs>
<linearGradient id="paint0_linear_0_156" x1="960" y1="291.607" x2="960" y2="833.297" gradientUnits="userSpaceOnUse">
<stop stop-color="#003E52"/>
<stop offset="1" stop-color="#002B3E"/>
</linearGradient>
</defs>
</svg>
