<svg width="1920" height="710" viewBox="0 0 1920 710" fill="none" xmlns="http://www.w3.org/2000/svg">
<path d="M1957 14.5282V710H-38V349.178C-31.7135 348.164 -26.8256 345.014 -21.5084 342.59C20.8494 323.22 66.6829 314.976 115.66 317.464C165.606 319.995 214.305 327.779 261.939 339.536C306.761 350.588 350.559 363.786 394.606 376.589C451.379 393.118 508.733 407.694 569.964 410.758C602.366 412.392 634.187 411.324 665.204 403.017C688.764 396.786 711.823 389.48 734.258 381.138C816.648 350.171 893.222 311.965 967.552 270.897C1024.32 239.515 1078.94 205.847 1134.13 172.798C1189.32 139.75 1246.98 109.242 1309.63 84.8858C1378.87 57.9473 1451.74 36.9462 1526.93 22.2591C1605.05 6.97878 1684.45 -1.06178 1765.19 0.112803C1812.94 0.806876 1860.47 4.06368 1907.82 8.65524C1924.28 10.3317 1940.87 11.282 1957 14.5282Z" fill="#0976A5" fill-opacity="0.48"/>
</svg>
