<svg width="1919" height="166" viewBox="0 0 1919 166" fill="none" xmlns="http://www.w3.org/2000/svg">
<path d="M0 0V166H1920C1920 164.56 1914.02 97.5514 1920 166L1920 118.107C1920 116.746 1919.92 115.386 1919.83 114.029C1919.83 113.507 1919.31 112.992 1918.3 112.529C1917.29 112.067 1915.82 111.671 1914.02 111.376C1897.66 108.469 1880.67 105.79 1862.08 103.764C1838.94 101.245 1814.83 99.3761 1790.64 97.5773C1744.46 94.0909 1696.4 92.2574 1647.99 92.136C1608.65 92.0629 1569.42 91.0984 1530.84 89.2554C1515.12 88.4987 1499.97 87.1757 1485.91 85.3313C1450.1 80.6678 1416.28 75.249 1383.28 69.5453C1317.02 58.0899 1250.58 46.6986 1181.51 36.229C1139.77 29.9012 1096.82 24.0918 1051.48 19.3516C991.943 13.1262 929.657 10.1687 864.837 10.0695C854.165 10.0695 843.573 10.4632 832.914 10.4856C795.188 10.5688 757.861 11.7659 720.402 12.6749C667.267 13.9552 615.014 16.5157 562.36 18.5546C518.617 20.2414 475.421 22.7155 431.224 23.7878C399.421 24.5592 367.765 25.7498 335.629 25.4554C320.954 25.3209 306.426 24.8152 291.832 24.4951C249.397 23.5605 208.509 21.0608 168.541 17.5816C143.448 15.3987 119.262 12.7005 94.6228 10.2519C65.0741 7.32006 35.3121 4.49062 7.43091 0.649747C5.02197 0.390829 2.53845 0.17369 0 0Z" fill="url(#paint0_linear_0_58)" fill-opacity="0.4"/>
<defs>
<linearGradient id="paint0_linear_0_58" x1="960" y1="0" x2="960" y2="238.766" gradientUnits="userSpaceOnUse">
<stop stop-color="#082F3C"/>
<stop offset="1" stop-color="#002B3E"/>
</linearGradient>
</defs>
</svg>
