<svg width="1920" height="677" viewBox="0 0 1920 677" fill="none" xmlns="http://www.w3.org/2000/svg">
<path d="M-25.9045 677H1940V122.333C1896.37 112.373 1851.37 104.408 1805.46 98.516C1764.75 93.3724 1723.64 89.5319 1682.07 88.1597C1644.65 86.9255 1607.07 87.1478 1569.73 90.2141C1517.49 94.5069 1466.57 101.414 1417.89 113.065C1381.76 121.712 1346.74 131.616 1312.17 142.065C1295.65 147.055 1278.87 151.762 1261.7 156.047C1230.77 163.712 1198.5 169.423 1166.97 176.231C1118.72 186.779 1066.48 190.277 1015.16 186.395C944.637 181.277 876.044 169.813 812.021 152.444C748.915 135.38 689.225 114.882 627.621 96.2776C586.398 83.8593 544.628 72.1615 501.397 62.0888C438.209 47.3784 372.822 36.4318 307.9 24.665C275.118 18.7241 242.021 13.2202 208.365 9.01939C162.019 3.23949 115.414 -1.38292 67.511 0.380182C37.4607 1.4917 9.50033 7.05699 -18.624 12.3693C-20.795 12.6935 -22.7006 13.4279 -24.0193 14.4486C-25.338 15.4694 -25.9894 16.7141 -25.8635 17.9729C-25.8635 20.4642 -26 22.9479 -26 25.4392C-26 493.397 -25.9045 209.042 -25.9045 677C-25.9319 674.302 -24.0194 349.645 -25.9045 677Z" fill="url(#paint0_linear_0_103)" fill-opacity="0.5"/>
<defs>
<linearGradient id="paint0_linear_0_103" x1="957" y1="0.0004169" x2="957" y2="804.378" gradientUnits="userSpaceOnUse">
<stop stop-color="#0C576F"/>
<stop offset="1" stop-color="#005167"/>
</linearGradient>
</defs>
</svg>
