<svg width="1920" height="861" viewBox="0 0 1920 861" fill="none" xmlns="http://www.w3.org/2000/svg">
<path d="M1940 67.0954V860.626H-22V13.1005C32.1448 12.9818 84.9687 14.901 136.349 20.084C183.835 24.8749 227.937 31.9896 266.618 41.0997C303.767 49.7956 341.721 58.2233 382.479 65.5401C416.823 71.7 453.864 76.2394 494.445 78.1816C524.228 79.6067 554.037 79.5492 583.901 78.5647C624.564 77.2086 664.492 74.9485 702.963 70.9032C767.171 64.1265 828.002 55.3578 887.431 45.8269C943.046 36.9088 999.656 28.5884 1058.38 21.398C1123.17 13.4759 1190.01 7.36584 1259.54 3.69595C1307.94 1.14465 1356.66 0.0222352 1405.71 1.78056C1486.06 4.69196 1562.47 11.2771 1635.46 21.0953C1659.7 24.3553 1682.78 28.2589 1706.81 31.6377C1777.09 41.5287 1846.84 51.6918 1914.89 62.7589C1923.39 64.1342 1932.81 65.111 1940 67.0954Z" fill="url(#paint0_linear_0_67)" fill-opacity="0.8"/>
<defs>
<linearGradient id="paint0_linear_0_67" x1="102.842" y1="-294.443" x2="792.165" y2="1095.28" gradientUnits="userSpaceOnUse">
<stop stop-color="#33B0DD"/>
<stop offset="1" stop-color="#207898"/>
</linearGradient>
</defs>
</svg>
