<svg width="1920" height="220" viewBox="0 0 1920 220" fill="none" xmlns="http://www.w3.org/2000/svg">
<g opacity="0.9">
<path d="M1929.88 219.082H-8.99997L-8.97397 53.1519C34.0573 48.8931 78.433 45.4874 123.72 42.9684C163.865 40.7691 204.414 39.127 245.407 38.5403C282.319 38.0126 319.379 38.1077 356.21 39.4187C407.725 41.2542 457.947 44.2073 505.96 49.1893C541.592 52.8864 576.132 57.1211 610.229 61.5885C626.516 63.7223 643.072 65.7347 660.005 67.5669C690.505 70.8445 722.338 73.2864 753.43 76.1969C801.019 80.7072 852.537 82.2026 903.152 80.543C972.707 78.3548 1040.36 73.4531 1103.5 66.0264C1165.74 58.7304 1224.61 49.9661 1285.36 42.0113C1326.02 36.7015 1367.22 31.6999 1409.85 27.3931C1472.17 21.1034 1536.66 16.4229 1600.69 11.3918C1633.02 8.8516 1665.66 6.49828 1698.86 4.70214C1744.57 2.23082 1790.53 0.254405 1837.77 1.00826C1867.41 1.48351 1894.99 3.86307 1922.73 6.13446C1924.87 6.2731 1926.75 6.58709 1928.05 7.02353C1929.35 7.45996 1929.99 7.99217 1929.87 8.5304C1929.87 9.59563 1930 10.6576 1930 11.7228C1930 211.808 1929.97 15.5582 1929.97 215.644C1929.97 216.791 1929.91 217.928 1929.88 219.082Z" fill="url(#paint0_linear_0_162)" fill-opacity="0.7"/>
</g>
<defs>
<linearGradient id="paint0_linear_0_162" x1="960.513" y1="0.845703" x2="960.513" y2="344.775" gradientUnits="userSpaceOnUse">
<stop stop-color="#152428"/>
<stop offset="1" stop-color="#005167"/>
</linearGradient>
</defs>
</svg>
