<svg width="1920" height="275" viewBox="0 0 1920 275" fill="none" xmlns="http://www.w3.org/2000/svg">
<path d="M-8 0V275H1931C1931 273.341 1931 271.683 1931 270.027L1931 136.03C1931 134.463 1930.92 132.896 1930.82 131.333C1930.83 130.732 1930.3 130.139 1929.28 129.606C1928.26 129.073 1926.78 128.617 1924.96 128.277C1908.43 124.93 1891.28 121.844 1872.5 119.511C1849.14 116.61 1824.78 114.457 1800.36 112.385C1753.73 108.37 1705.18 106.258 1656.3 106.118C1616.57 106.034 1576.95 104.923 1537.99 102.8C1522.11 101.929 1506.82 100.405 1492.61 98.2806C1456.45 92.9095 1422.3 86.6683 1388.97 80.0991C1322.05 66.9053 1254.96 53.7852 1185.2 41.7269C1143.05 34.4388 1099.68 27.7479 1053.89 22.2882C993.76 15.1181 930.857 11.7118 865.395 11.5976C854.618 11.5976 843.921 12.051 833.156 12.0768C795.057 12.1726 757.361 13.5514 719.531 14.5983C665.871 16.0729 613.1 19.0221 559.925 21.3703C515.749 23.3131 472.126 26.1627 427.492 27.3977C395.374 28.2861 363.405 29.6574 330.95 29.3183C316.13 29.1635 301.459 28.581 286.72 28.2124C243.865 27.1359 202.572 24.2568 162.209 20.2496C136.868 17.7355 112.443 14.6278 87.5592 11.8077C57.7181 8.4309 27.6616 5.17208 -0.495483 0.748349C-2.92825 0.450139 -5.43649 0.200048 -8 0Z" fill="white"/>
</svg>
