<svg width="1920" height="1014" viewBox="0 0 1920 1014" fill="none" xmlns="http://www.w3.org/2000/svg">
<path d="M1926 0V1014H-6C-6 1009.93 -6 666.076 -6 662.015L-6 333.499C-6 329.658 -5.91929 325.817 -5.82532 321.985C-5.83387 320.51 -5.30645 319.056 -4.28861 317.75C-3.27078 316.444 -1.79366 315.326 0.0137715 314.492C16.4846 306.286 33.5732 298.721 52.2857 293C75.5624 285.887 99.8321 280.609 124.169 275.53C170.634 265.685 219.001 260.508 267.709 260.165C307.297 259.959 346.767 257.235 385.595 252.031C401.409 249.895 416.652 246.159 430.806 240.951C466.835 227.783 500.864 212.481 534.074 196.376C600.749 164.029 667.599 131.863 737.107 102.3C779.109 84.4322 822.32 68.0284 867.947 54.6432C927.857 37.0645 990.532 28.7135 1055.76 28.4333C1066.5 28.4333 1077.15 29.5449 1087.88 29.6082C1125.84 29.8432 1163.4 33.2234 1201.1 35.7901C1254.56 39.4053 1307.14 46.6356 1360.13 52.3928C1404.14 57.1558 1447.61 64.1421 1492.08 67.1698C1524.08 69.3479 1555.94 72.71 1588.27 71.8785C1603.04 71.4989 1617.66 70.071 1632.34 69.1672C1675.04 66.5281 1716.19 59.4695 1756.41 49.6453C1781.66 43.4814 1805.99 35.8624 1830.79 28.9484C1860.52 20.6697 1890.47 12.6802 1918.52 1.8347C1920.95 1.10359 1923.45 0.49045 1926 0Z" fill="url(#paint0_linear_0_191)" fill-opacity="0.4"/>
<defs>
<linearGradient id="paint0_linear_0_191" x1="960" y1="0" x2="960" y2="674.207" gradientUnits="userSpaceOnUse">
<stop stop-color="#002B3E"/>
<stop offset="1" stop-color="#1685B1"/>
</linearGradient>
</defs>
</svg>
