<svg width="1920" height="1422" viewBox="0 0 1920 1422" fill="none" xmlns="http://www.w3.org/2000/svg">
<path d="M1920 109.442V1421.97H0V20.1326C52.9857 19.9362 104.679 23.1107 154.959 31.6836C201.429 39.6079 244.587 51.3759 282.439 66.4443C318.794 80.8276 355.935 94.7674 395.821 106.87C429.43 117.058 465.677 124.567 505.39 127.779C534.535 130.136 563.706 130.041 592.931 128.413C632.724 126.17 671.797 122.431 709.444 115.74C772.278 104.532 831.807 90.0278 889.963 74.2632C944.388 59.5124 999.786 45.7501 1057.25 33.857C1120.66 20.7536 1186.06 10.6473 1254.11 4.57712C1301.47 0.357177 1349.15 -1.49935 1397.15 1.409C1475.78 6.22455 1550.55 17.1166 1621.98 33.3564C1645.7 38.7485 1668.29 45.2052 1691.8 50.7938C1760.58 67.154 1828.83 83.9641 1895.43 102.269C1903.74 104.544 1912.96 106.16 1920 109.442Z" fill="url(#paint0_linear_0_210)"/>
<defs>
<linearGradient id="paint0_linear_0_210" x1="122.169" y1="-488.556" x2="1532.29" y2="1193.42" gradientUnits="userSpaceOnUse">
<stop stop-color="#90D3EB"/>
<stop offset="1" stop-color="#207898"/>
</linearGradient>
</defs>
</svg>
