<svg width="1921" height="1155" viewBox="0 0 1921 1155" fill="none" xmlns="http://www.w3.org/2000/svg">
<path d="M0.337878 88.864V1154.6H1920.34V16.3471C1867.35 16.1876 1815.66 18.7652 1765.38 25.7262C1718.91 32.1605 1675.75 41.7158 1637.9 53.9509C1601.54 65.6298 1564.4 76.9484 1524.52 86.7751C1490.91 95.0481 1454.66 101.145 1414.95 103.753C1385.8 105.667 1356.63 105.59 1327.41 104.268C1287.61 102.446 1248.54 99.4109 1210.89 93.9779C1148.06 84.8767 1088.53 73.1001 1030.37 60.2997C975.95 48.3224 920.552 37.1478 863.089 27.4909C799.682 16.8513 734.276 8.64527 666.231 3.71649C618.869 0.290018 571.187 -1.21743 523.186 1.14406C444.56 5.05416 369.785 13.8982 298.356 27.0844C274.635 31.4627 252.047 36.7053 228.539 41.2431C159.762 54.5271 91.5038 68.1764 24.9119 83.04C16.5962 84.887 7.37421 86.1989 0.337878 88.864Z" fill="url(#paint0_linear_0_211)" fill-opacity="0.3"/>
<defs>
<linearGradient id="paint0_linear_0_211" x1="1798.17" y1="-396.693" x2="716.341" y2="1192.51" gradientUnits="userSpaceOnUse">
<stop stop-color="#90D3EB"/>
<stop offset="1" stop-color="#207898"/>
</linearGradient>
</defs>
</svg>
