<svg width="1920" height="309" viewBox="0 0 1920 309" fill="none" xmlns="http://www.w3.org/2000/svg">
<path d="M-6 0V309H1926C1926 307.136 1926 305.273 1926 303.412L1926 152.848C1926 151.088 1925.92 149.327 1925.83 147.571C1925.83 146.895 1925.31 146.229 1924.29 145.63C1923.27 145.031 1921.79 144.519 1919.99 144.137C1903.52 140.376 1886.43 136.909 1867.71 134.287C1844.44 131.027 1820.17 128.608 1795.83 126.28C1749.37 121.768 1701 119.395 1652.29 119.238C1612.7 119.143 1573.23 117.895 1534.41 115.51C1518.59 114.531 1503.35 112.819 1489.19 110.432C1453.16 104.396 1419.14 97.3837 1385.93 90.0022C1319.25 75.1772 1252.4 60.435 1182.89 46.8858C1140.89 38.6967 1097.68 31.1785 1052.05 25.0439C992.143 16.9873 929.468 13.1598 864.242 13.0314C853.503 13.0314 842.845 13.5409 832.12 13.5699C794.158 13.6776 756.598 15.2268 718.904 16.4032C665.438 18.0601 612.858 21.3739 559.875 24.0125C515.858 26.1954 472.392 29.3974 427.92 30.785C395.918 31.7833 364.064 33.3242 331.726 32.9431C316.96 32.7691 302.342 32.1147 287.656 31.7004C244.955 30.4909 203.812 27.2558 163.595 22.7532C138.345 19.9282 114.008 16.4363 89.2142 13.2675C59.4808 9.47327 29.5329 5.81154 1.47742 0.840872C-0.94657 0.505793 -3.44574 0.224781 -6 0Z" fill="white"/>
</svg>
