<svg width="1939" height="1390" viewBox="0 0 1939 1390" fill="none" xmlns="http://www.w3.org/2000/svg">
<path d="M0 0L0.000488281 1245H1939C1939 1243.11 1939 1243.57 1939 1241.68L1939 155.306C1939 153.517 1938.92 151.728 1938.82 149.944C1938.83 149.257 1938.3 148.58 1937.28 147.972C1936.26 147.363 1934.78 146.843 1932.96 146.455C1916.43 142.633 1899.28 139.11 1880.5 136.446C1857.14 133.134 1832.78 130.676 1808.36 128.31C1761.72 123.726 1713.18 121.315 1664.3 121.155C1624.57 121.059 1584.95 119.791 1545.98 117.367C1530.11 116.372 1514.81 114.633 1500.61 112.207C1464.45 106.075 1430.3 98.9495 1396.97 91.4494C1330.05 76.386 1262.96 61.4068 1193.2 47.6397C1151.04 39.3189 1107.68 31.6798 1061.88 25.4466C1001.76 17.2604 938.856 13.3714 873.394 13.241C862.616 13.241 851.92 13.7587 841.155 13.7881C803.056 13.8975 765.36 15.4716 727.53 16.667C673.87 18.3505 621.099 21.7176 567.924 24.3986C523.748 26.6166 480.125 29.8701 435.491 31.28C403.373 32.2943 371.404 33.86 338.949 33.4728C324.13 33.296 309.458 32.631 294.72 32.2102C251.864 30.9812 210.572 27.6941 170.209 23.1191C144.868 20.2487 120.442 16.7006 95.5591 13.4809C65.7179 9.62559 35.6614 5.90499 7.50439 0.854392C5.07166 0.513925 2.56348 0.228396 0 0Z" fill="white"/>
<path d="M1939 1390L1939 200H0C0 201.81 0 201.37 0 203.178L0.00217749 1241.56C0.00217749 1243.26 0.0831949 1244.97 0.177501 1246.68C0.168918 1247.34 0.698244 1247.98 1.71977 1248.57C2.74129 1249.15 4.22375 1249.64 6.03773 1250.02C22.5682 1253.67 39.7187 1257.04 58.4991 1259.58C81.86 1262.75 106.218 1265.1 130.643 1267.36C177.276 1271.74 225.818 1274.04 274.702 1274.2C314.434 1274.29 354.047 1275.5 393.015 1277.82C408.887 1278.77 424.185 1280.43 438.39 1282.75C474.55 1288.61 508.702 1295.42 542.032 1302.59C608.949 1316.99 676.041 1331.31 745.8 1344.46C787.955 1352.42 831.323 1359.72 877.115 1365.68C937.242 1373.5 1000.14 1377.22 1065.61 1377.34C1076.38 1377.34 1087.08 1376.85 1097.84 1376.82C1135.94 1376.72 1173.64 1375.21 1211.47 1374.07C1265.13 1372.46 1317.9 1369.24 1371.08 1366.68C1415.25 1364.56 1458.88 1361.45 1503.51 1360.1C1535.63 1359.13 1567.6 1357.64 1600.05 1358.01C1614.87 1358.17 1629.54 1358.81 1644.28 1359.21C1687.14 1360.39 1728.43 1363.53 1768.79 1367.9C1794.13 1370.65 1818.56 1374.04 1843.44 1377.11C1873.28 1380.8 1903.34 1384.36 1931.5 1389.18C1933.93 1389.51 1936.44 1389.78 1939 1390Z" fill="white"/>
</svg>
