<svg width="1939" height="2345" viewBox="0 0 1939 2345" fill="none" xmlns="http://www.w3.org/2000/svg">
<path fill-rule="evenodd" clip-rule="evenodd" d="M0 0L0.000488281 1489L0 2335.61V2345H1939V1489V642.388L1939 80.3486C1939 79.4229 1938.92 78.4971 1938.82 77.5742C1938.83 77.2188 1938.3 76.8682 1937.28 76.5537C1936.26 76.2393 1934.78 75.9697 1932.96 75.7695C1916.43 73.792 1899.28 71.9697 1880.5 70.5908C1857.14 68.877 1832.78 67.6055 1808.36 66.3818C1761.72 64.0107 1713.18 62.7627 1664.3 62.6807C1624.57 62.6309 1584.95 61.9746 1545.98 60.7207C1530.11 60.2061 1514.81 59.3057 1500.61 58.0508C1464.45 54.8789 1430.3 51.1924 1396.97 47.3115C1330.05 39.5186 1262.96 31.7695 1193.2 24.6465C1151.04 20.3418 1107.68 16.3896 1061.88 13.165C1001.76 8.92969 938.856 6.91797 873.394 6.85059C867.846 6.85059 862.32 6.9209 856.794 6.99219C851.586 7.05957 846.379 7.12598 841.155 7.13379C810.901 7.17871 780.901 7.70117 750.886 8.22461L748.351 8.26855C741.413 8.38867 734.474 8.50879 727.53 8.62305C689.441 9.24121 651.8 10.2979 614.145 11.3555C598.751 11.7881 583.354 12.2207 567.924 12.623C552.044 13.0352 536.237 13.5166 520.428 13.999C492.256 14.8574 464.081 15.7158 435.491 16.1826C428.416 16.2988 421.348 16.4277 414.28 16.5576H414.269C389.257 17.0156 364.25 17.4736 338.949 17.3174C329.066 17.2559 319.25 17.083 309.435 16.9102C306.354 16.8555 303.273 16.8008 300.19 16.75C298.368 16.7197 296.544 16.6904 294.72 16.6641C251.864 16.0283 210.572 14.3281 170.209 11.9609C153.166 10.9619 136.537 9.80469 119.904 8.64746C111.806 8.08398 103.707 7.51953 95.5591 6.97461L87.1838 6.41602C60.1135 4.61426 33.0286 2.81055 7.50439 0.442383C5.07178 0.265625 2.56348 0.118164 0 0Z" fill="url(#paint0_linear_2101_264)"/>
<defs>
<linearGradient id="paint0_linear_2101_264" x1="2919" y1="3893.62" x2="2708.37" y2="-1079.97" gradientUnits="userSpaceOnUse">
<stop offset="0.119792" stop-color="#025369"/>
<stop offset="0.50127" stop-color="#011216"/>
<stop offset="0.838542" stop-color="#025369"/>
</linearGradient>
</defs>
</svg>
