<svg width="152" height="48" viewBox="0 0 152 48" fill="none" xmlns="http://www.w3.org/2000/svg">
<path d="M17.3626 39.4902C15.99 41.0052 14.7117 42.4546 13.406 43.856C11.7869 45.5805 10.1129 47.0955 8.01287 47.4142C6.16842 47.6936 4.3199 46.9419 2.85213 45.3154C1.38437 43.689 0.410457 41.3131 0.133146 38.6826C-0.30208 34.4521 0.382716 30.4836 1.41752 26.5937C2.39754 22.9089 3.50843 19.3071 5.23107 16.1725C6.51545 13.8411 8.44201 12.9767 9.98204 14.0158C10.7043 14.4804 11.2745 15.3254 11.5747 16.376C11.8749 17.4267 11.8822 18.6026 11.5951 19.6608C11.0836 21.602 10.491 23.4972 9.82073 25.3363C8.73723 28.5452 7.65678 31.7453 7.3859 35.3776C7.35546 35.7662 7.3859 36.1679 7.3859 36.8664C7.87895 36.4516 8.24418 36.1941 8.56984 35.8623C10.9604 33.49 13.18 30.7814 15.1956 27.7768C15.7357 26.9458 16.3321 26.1941 16.9761 25.5328C19.8796 22.5946 23.3067 24.9215 23.6354 29.9902C23.7101 31.611 23.8606 33.2227 24.0858 34.8145C24.3902 36.6175 24.8771 36.9581 25.9545 35.9976C27.4033 34.6879 28.8946 33.3781 30.112 31.7016C32.3886 28.5539 34.4734 25.118 36.6617 21.8349C37.3427 20.7288 38.0958 19.7186 38.9109 18.8182C40.5209 17.1853 42.5357 17.4429 43.6953 19.2329C44.2899 20.1977 44.6213 21.4382 44.6286 22.7258C44.6358 24.0135 44.3184 25.2615 43.7349 26.24C40.0826 32.1426 36.6343 38.3857 32.0781 43.0135C29.969 45.1614 27.7502 47.0431 25.078 47.0693C21.9036 47.1042 19.5083 45.0828 17.9622 41.0663C17.7492 40.573 17.5757 40.0753 17.3626 39.4902Z" fill="white"/>
<path d="M76.7909 8.03459C80.9423 7.97347 83.995 12.4004 84.3541 18.6042C84.6585 23.8432 83.785 28.8246 82.9297 33.819C82.6149 35.7743 82.2206 37.7015 81.7488 39.5906C81.1949 41.7124 80.1845 43.3365 78.5227 43.6639C76.0878 44.1398 74.2313 41.0794 74.7609 37.3641C75.1931 34.308 75.8352 31.3524 76.2826 28.3225C76.6418 25.9606 76.864 23.5594 77.1318 21.1713C77.1653 20.7945 77.1653 20.413 77.1318 20.0362C76.9796 17.814 76.6874 17.4167 75.2417 18.2418C72.7217 19.6913 70.2138 21.215 67.8033 22.9962C63.4298 26.2269 59.744 30.8809 55.9883 35.3514C53.2674 38.5909 50.6895 42.0704 47.999 45.3666C47.43 46.0934 46.7405 46.5985 45.9964 46.8335C43.8355 47.3618 42.3137 44.7205 42.8828 41.5945C43.3059 39.2807 44.2585 37.4077 45.409 35.7749C50.4917 28.567 55.9031 21.9135 61.9932 16.513C65.9285 13.0203 70.0616 10.0429 74.5843 8.3533C74.9664 8.20731 75.3548 8.09792 75.747 8.02587C76.0948 8.0018 76.4433 8.00471 76.7909 8.03459Z" fill="white"/>
<path d="M138.916 34.6746C139.725 34.7924 140.574 34.7226 141.35 35.0631C142.088 35.3839 142.727 36.0547 143.164 36.9653C143.601 37.8759 143.809 38.9724 143.755 40.0751C143.691 41.2409 143.354 42.3412 142.798 43.1962C142.241 44.0511 141.499 44.61 140.693 44.7814C139.409 44.956 138.117 44.956 136.834 44.7814C133.875 44.4714 130.966 43.8209 128.214 42.0877C123.932 39.394 122.97 34.9889 123.597 29.1605C124.31 22.5725 126.416 16.7311 128.86 11.1647C129.87 8.85826 131.018 6.68307 132.293 4.66403C134.271 1.54684 136.858 0.127952 139.786 0.0144408C143.103 -0.116533 146.263 0.612555 149.038 3.47216C150.107 4.56797 151.032 5.83406 151.522 7.63714C152.228 10.2566 151.078 12.8761 149.13 12.7539C147.952 12.6279 146.796 12.2391 145.703 11.6013C143.987 10.6061 142.157 10.0847 140.306 10.0645C138.855 10.0645 137.613 10.7543 136.675 12.3915C133.683 17.4767 131.544 23.4796 130.424 29.9377C130.031 32.2734 130.208 32.7274 131.797 33.4303C134.103 34.4239 136.51 34.8447 138.916 34.6746Z" fill="white"/>
<path d="M91.1016 32.5569C91.196 27.8665 91.7776 23.2226 92.8272 18.7784C93.4468 15.9268 94.2086 13.143 95.1069 10.4484C96.0656 7.7067 98.3939 7.21337 99.7848 9.19108C100.798 10.6274 100.865 12.4567 100.585 14.2816C100.056 17.7175 99.3252 21.0923 98.8808 24.5456C98.5263 27.3662 98.3339 30.2237 98.3056 33.0895C98.2752 35.53 98.7195 35.7439 100.18 34.5651C102.962 32.2862 105.391 29.217 107.318 25.5454C109.549 21.3862 111.809 17.2489 114.096 13.1334C114.766 11.8766 115.746 11.0347 116.835 10.7802C118.868 10.3043 120.679 12.8365 120.24 15.7485C120.006 17.49 119.516 19.1403 118.804 20.5902C115.949 25.9776 113.064 31.3563 109.978 36.4643C107.826 39.9827 105.18 42.8094 102.214 44.7593C97.2099 48.0948 92.5686 44.6283 91.5124 36.8659C91.272 35.2287 91.205 33.5654 91.1016 32.5569Z" fill="white"/>
<path d="M140.735 28.4578C138.724 28.4883 137.135 26.3927 137.129 23.699C137.135 22.4314 137.491 21.2189 138.118 20.3258C138.745 19.4327 139.593 18.9316 140.477 18.9316C142.461 18.8967 144.114 20.9617 144.129 23.5113C144.136 24.1572 144.054 24.7986 143.887 25.3983C143.719 25.998 143.471 26.5439 143.155 27.0043C142.839 27.4647 142.462 27.8303 142.047 28.0799C141.632 28.3294 141.186 28.4579 140.735 28.4578Z" fill="white"/>
<path d="M72.9011 30.8021C72.9057 31.3619 72.8319 31.9173 72.6842 32.4355C72.5365 32.9536 72.3178 33.424 72.0411 33.8189C71.7645 34.2137 71.4354 34.5249 71.0734 34.7342C70.7115 34.9434 70.3239 35.0463 69.9337 35.037C69.1603 35.0231 68.4204 34.5827 67.8673 33.8073C67.3143 33.0318 66.9905 31.9807 66.9632 30.872C66.9388 28.5319 68.3724 26.432 69.9611 26.4844C70.7475 26.5095 71.4957 26.9756 72.0453 27.7827C72.5949 28.5899 72.9021 29.6738 72.9011 30.8021Z" fill="white"/>
</svg>
